<svg xmlns="http://www.w3.org/2000/svg" xmlns:xlink="http://www.w3.org/1999/xlink" viewBox="0 0 500 500"><defs><style>.cls-1,.cls-14,.cls-20,.cls-26,.cls-28,.cls-31,.cls-7{fill:none;}.cls-2{fill:#71c6b8;}.cls-12,.cls-29,.cls-3,.cls-9{fill:#121227;}.cls-12,.cls-4,.cls-9{font-size:8.5px;font-family:Lato-Semibold, Lato;font-weight:600;}.cls-24,.cls-4{fill:#f2c051;}.cls-5{letter-spacing:-0.03em;}.cls-6{fill:#a9ede4;}.cls-7{stroke:#71c6b8;}.cls-14,.cls-26,.cls-7{stroke-linecap:round;}.cls-14,.cls-20,.cls-26,.cls-28,.cls-31,.cls-7{stroke-miterlimit:10;}.cls-26,.cls-31,.cls-7{stroke-width:0.71px;}.cls-8{fill:#f92e3e;}.cls-9{letter-spacing:-0.01em;}.cls-10{letter-spacing:-0.06em;}.cls-11{letter-spacing:-0.03em;}.cls-13{letter-spacing:-0.03em;}.cls-14,.cls-20,.cls-26{stroke:#121227;}.cls-14{stroke-width:4.25px;}.cls-15{fill:#001026;}.cls-16{fill:#467a84;}.cls-17{fill:#001228;}.cls-18{fill:#fff2f6;}.cls-19{clip-path:url(#clip-path);}.cls-20{stroke-width:2.13px;}.cls-21{fill:#f45669;opacity:0.75;}.cls-22{fill:#93efe5;}.cls-23{fill:#bfefe8;}.cls-25{fill:#fefdfe;}.cls-27{fill:#efd29e;}.cls-28{stroke:#f92e3e;}.cls-29{font-size:9.92px;font-family:Lato-Black, Lato;}.cls-29,.cls-32{font-weight:800;}.cls-30,.cls-32{fill:#30261e;}.cls-31{stroke:#ffbe00;}.cls-32{font-size:4.25px;font-family:Lato-Heavy, Lato;}.cls-33{letter-spacing:-0.02em;}</style><clipPath id="clip-path"><path class="cls-1" d="M330.85,186.13c0-.13,0-.26-.05-.39,0-.32-.08-.64-.14-1,0-.13-.05-.27-.08-.4a10.21,10.21,0,0,0-.29-1.12l0-.13c-.07-.23-.16-.45-.24-.68h0c-.06-.17-.12-.33-.19-.5s-.12-.26-.17-.39-.24-.52-.38-.77l-.21-.41-.36-.59,0-.07-.09-.14-.17-.27c-.22-.33-.46-.64-.71-.95-.1-.13-.22-.25-.33-.38s-.31-.35-.47-.52a.23.23,0,0,0-.07-.07l-.34-.35c-.17-.17-.36-.33-.54-.49l0,0-.12-.11h0l-.28-.23c-.27-.22-.54-.42-.82-.62l-.5-.32a6.16,6.16,0,0,0-.55-.33c-.15-.09-.3-.18-.46-.26l-.09,0-.59-.28c-.18-.08-.35-.17-.53-.24h0l-.22-.08c-.13-.06-.27-.1-.41-.15-.36-.13-.73-.25-1.1-.35l-.51-.13a11.39,11.39,0,0,0-1.14-.21l-.49-.08a15.25,15.25,0,0,0-1.66-.1h-32.5a14.52,14.52,0,0,0-13.82,10.09h0L244.58,243H188.42v12.46h81v22h61.46v-90C330.92,187,330.89,186.57,330.85,186.13ZM269.44,243h-5.73l5.73-13.52Z"/></clipPath></defs><g id="BACKGROUND"><rect class="cls-2" width="500" height="500"/></g><g id="OBJECTS"><path class="cls-3" d="M429.29,373.54H363.08a6.46,6.46,0,0,0-6.46,6.46h0a6.46,6.46,0,0,0,6.46,6.46h66.21a6.46,6.46,0,0,0,6.46-6.46h0A6.46,6.46,0,0,0,429.29,373.54Z"/><text class="cls-4" transform="translate(381.65 383.38)">HTM<tspan class="cls-5" x="19.56" y="0">L</tspan></text><path class="cls-3" d="M408.92,399.38H358.58a6.46,6.46,0,0,0-6.46,6.45h0a6.46,6.46,0,0,0,6.46,6.46h50.34a6.46,6.46,0,0,0,6.46-6.46h0A6.46,6.46,0,0,0,408.92,399.38Z"/><path class="cls-6" d="M424.31,405.83a6.46,6.46,0,0,1,6.46-6.45H403.05a6.46,6.46,0,1,0,0,12.91h27.72A6.46,6.46,0,0,1,424.31,405.83Z"/><text class="cls-4" transform="translate(367.06 408.88)">C++</text><line class="cls-7" x1="435.75" y1="401.17" x2="402.83" y2="401.17"/><line class="cls-7" x1="435.75" y1="403.42" x2="400.17" y2="403.42"/><line class="cls-7" x1="435.75" y1="405.67" x2="398.5" y2="405.67"/><line class="cls-7" x1="435.75" y1="407.92" x2="401.25" y2="407.92"/><line class="cls-7" x1="435.75" y1="410.17" x2="402.83" y2="410.17"/><path class="cls-8" d="M416.19,360.62H365.86a6.46,6.46,0,0,0-6.46,6.46h0a6.46,6.46,0,0,0,6.46,6.46h50.33a6.46,6.46,0,0,0,6.46-6.46h0A6.46,6.46,0,0,0,416.19,360.62Z"/><path class="cls-6" d="M431.59,367.08a6.46,6.46,0,0,1,6.46-6.46H410.33a6.46,6.46,0,1,0,0,12.92h27.72A6.46,6.46,0,0,1,431.59,367.08Z"/><text class="cls-9" transform="translate(374.85 370.02)">J<tspan class="cls-10" x="3.53" y="0">AV</tspan><tspan class="cls-11" x="14.26" y="0">A</tspan></text><line class="cls-7" x1="410.13" y1="362.94" x2="435.75" y2="362.94"/><line class="cls-7" x1="407.42" y1="365.19" x2="435.75" y2="365.19"/><line class="cls-7" x1="411" y1="367.08" x2="435.75" y2="367.08"/><line class="cls-7" x1="407.42" y1="369.33" x2="435.75" y2="369.33"/><line class="cls-7" x1="411" y1="371.23" x2="435.75" y2="371.23"/><path class="cls-8" d="M418.13,386.46H367.8a6.46,6.46,0,0,0-6.46,6.46h0a6.46,6.46,0,0,0,6.46,6.46h50.33a6.46,6.46,0,0,0,6.46-6.46h0A6.46,6.46,0,0,0,418.13,386.46Z"/><path class="cls-6" d="M427.39,392.92a6.46,6.46,0,0,1,6.46-6.46H415.38a6.46,6.46,0,1,0,0,12.92h18.47A6.46,6.46,0,0,1,427.39,392.92Z"/><text class="cls-12" transform="translate(378.61 396.25)">PH<tspan class="cls-13" x="11.72" y="0">P</tspan></text><line class="cls-7" x1="434.25" y1="388.5" x2="413.13" y2="388.5"/><line class="cls-7" x1="434.25" y1="390.75" x2="411" y2="390.75"/><line class="cls-7" x1="434.25" y1="393" x2="414.13" y2="393"/><line class="cls-7" x1="434.25" y1="395.25" x2="411.44" y2="395.25"/><line class="cls-7" x1="434.25" y1="397.5" x2="414.81" y2="397.5"/><line class="cls-14" x1="45.04" y1="412.29" x2="467" y2="412.29"/><path class="cls-15" d="M178.59,412.46l-.31,0a2.12,2.12,0,0,1-1.8-2.41l21.4-150.82a2.13,2.13,0,1,1,4.21.6l-21.4,150.82A2.13,2.13,0,0,1,178.59,412.46Z"/><path class="cls-15" d="M220,412.38a2.14,2.14,0,0,1-2.13-2.13V326a2.13,2.13,0,0,1,4.26,0v84.25A2.14,2.14,0,0,1,220,412.38Z"/><path class="cls-15" d="M265.5,412.38a2.14,2.14,0,0,1-2.13-2.13V326a2.13,2.13,0,0,1,4.26,0v84.25A2.14,2.14,0,0,1,265.5,412.38Z"/><path class="cls-15" d="M286.17,412.38a2.13,2.13,0,0,1-2.13-2.13V326a2.13,2.13,0,1,1,4.25,0v84.25A2.13,2.13,0,0,1,286.17,412.38Z"/><path class="cls-15" d="M342.42,412.38a2.13,2.13,0,0,1-2.13-2.13V326a2.13,2.13,0,1,1,4.25,0v84.25A2.13,2.13,0,0,1,342.42,412.38Z"/><path class="cls-3" d="M300.39,194.12s-17,14.5-17,47.63V300a15,15,0,0,1-15,15h74.1V232.33L356.75,204v-9.88H300.39"/><path class="cls-8" d="M364.56,203.94s-12.23,12.94-12.23,37.81V312a20,20,0,0,1-20,20H279.17V315h45.58a15,15,0,0,0,15-15V241.75c0-33.13,17-47.63,17-47.63Z"/><rect class="cls-3" x="216.5" y="315" width="70.5" height="17" rx="4.19"/><path class="cls-16" d="M232.5,315h79.17V277.5H269.38l-47.64,24.32a20.06,20.06,0,0,0-8.2,7.77L171.75,381.5l16,10.5Z"/><path class="cls-3" d="M311.67,282.62l-11.59,4.05-52.16,15c-6.21,1.69-10,5.6-13.5,10.53L232.5,315h71.33a14.87,14.87,0,0,0,7.84-2.23Z"/><polygon class="cls-8" points="176.95 411.54 138.34 384.52 139.08 383.28 177.75 410.33 176.95 411.54"/><path class="cls-17" d="M173,382.33c-1.93,2.5-10.18,2.25-15.51.84s-15.58-3.78-18.42.11l38.67,27.05A40.57,40.57,0,0,0,186.26,391Z"/><path class="cls-18" d="M174.46,397.34A6.1,6.1,0,1,0,166,399,6.11,6.11,0,0,0,174.46,397.34Z"/><polygon class="cls-8" points="166.47 390.54 168.92 392.18 172 389.38 170.98 393.56 173.73 395.21 170.25 395.68 169.73 399.2 168.14 395.85 164.3 396.86 167.32 393.91 166.47 390.54"/><path class="cls-16" d="M330.83,277.5V300a15,15,0,0,1-15,15H271.15L250,395.25l-18.17-2.92,15.52-79.87a15,15,0,0,1,8.57-10.82l52.89-24.14Z"/><path class="cls-17" d="M231.83,392.33c-2.08,5.25-8.41,9.42-14.33,10.5s-10.81,4.15-11.81,7.5l42.06-.08a46,46,0,0,0,0-15.36Z"/><path class="cls-18" d="M242.67,401.84a6.11,6.11,0,1,0-6.11,6.11A6.11,6.11,0,0,0,242.67,401.84Z"/><polygon class="cls-8" points="232.8 400.79 235.37 400.79 236.25 397.27 237.53 400.79 240.32 400.65 238.03 402.68 239.36 405.48 236.59 403.83 234.29 406.42 235.05 402.81 232.8 400.79"/><polygon class="cls-8" points="205.69 411.94 205.69 410.33 247.75 410.25 247.75 411.94 205.69 411.94"/><path class="cls-8" d="M330.83,277.5v-90a14.5,14.5,0,0,0-14.5-14.5h-32.5a14.5,14.5,0,0,0-14.5,14.5l.05,90Z"/><polygon class="cls-8" points="283.33 196.5 258.34 255.46 188.34 255.46 188.33 243 244.5 243 270.02 183.06 283.33 196.5"/><path class="cls-8" d="M321.86,174.07,292,243H235.83v12.46h70l25-59v-9A14.48,14.48,0,0,0,321.86,174.07Z"/><g class="cls-19"><line class="cls-20" x1="194.08" y1="132.89" x2="194.08" y2="369.84"/><line class="cls-20" x1="205.75" y1="132.89" x2="205.75" y2="369.84"/><line class="cls-20" x1="217.42" y1="132.89" x2="217.42" y2="369.84"/><line class="cls-20" x1="229.08" y1="132.89" x2="229.08" y2="369.84"/><line class="cls-20" x1="240.75" y1="132.89" x2="240.75" y2="369.84"/><line class="cls-20" x1="252.42" y1="132.89" x2="252.42" y2="369.84"/><line class="cls-20" x1="264.08" y1="132.89" x2="264.08" y2="369.84"/><line class="cls-20" x1="275.75" y1="132.89" x2="275.75" y2="369.84"/><line class="cls-20" x1="287.42" y1="132.89" x2="287.42" y2="369.84"/><line class="cls-20" x1="299.08" y1="132.89" x2="299.08" y2="369.84"/><line class="cls-20" x1="310.75" y1="132.89" x2="310.75" y2="369.84"/><line class="cls-20" x1="322.42" y1="132.89" x2="322.42" y2="369.84"/></g><g class="cls-19"><line class="cls-20" x1="166.61" y1="297.79" x2="403.56" y2="297.79"/><line class="cls-20" x1="166.61" y1="286.13" x2="403.56" y2="286.13"/><line class="cls-20" x1="166.61" y1="274.46" x2="403.56" y2="274.46"/><line class="cls-20" x1="166.61" y1="262.79" x2="403.56" y2="262.79"/><line class="cls-20" x1="166.61" y1="251.13" x2="403.56" y2="251.13"/><line class="cls-20" x1="166.61" y1="239.46" x2="403.56" y2="239.46"/><line class="cls-20" x1="166.61" y1="227.79" x2="403.56" y2="227.79"/><line class="cls-20" x1="166.61" y1="216.13" x2="403.56" y2="216.13"/><line class="cls-20" x1="166.61" y1="204.46" x2="403.56" y2="204.46"/><line class="cls-20" x1="166.61" y1="192.79" x2="403.56" y2="192.79"/><line class="cls-20" x1="166.61" y1="181.13" x2="403.56" y2="181.13"/><line class="cls-20" x1="166.61" y1="169.46" x2="403.56" y2="169.46"/></g><path class="cls-21" d="M328.1,179h0c0-.06-.09-.1-.13-.16q-.36-.48-.75-.93l-.27-.31c-.31-.33-.63-.64-1-.95-.06-.05-.12-.12-.19-.17a14.15,14.15,0,0,0-2.68-1.84c-.14-.08-.3-.15-.45-.22s-.53-.27-.81-.38h0a14.52,14.52,0,0,0-3.78-1l-15.8,6.37V173H283.83A14.49,14.49,0,0,0,270,183.06h0L244.5,243H188.33v12.46H249.7l3.65-6.21h47.4S321,202.1,329.94,182.46A14.82,14.82,0,0,0,328.1,179ZM256,243l13.34-25.5V243Z"/><path class="cls-22" d="M272.5,127.5v25.42a14.41,14.41,0,0,0,14.42,14.41h4.66A14.41,14.41,0,0,0,306,152.92V127.5Z"/><path class="cls-22" d="M286.92,152.17v20.37a8.29,8.29,0,0,0,8.29,8.29h2.5a8.29,8.29,0,0,0,8.29-8.29V152.17Z"/><path class="cls-23" d="M300.08,157.81l-13.16,3.58v11.15a8.29,8.29,0,0,0,8.29,8.29h2.5a8.22,8.22,0,0,0,4.57-1.37C301.36,171.62,300.08,163.58,300.08,157.81Z"/><path class="cls-23" d="M272.5,128.48v24.44a14.41,14.41,0,0,0,14.42,14.41h4.66a14.36,14.36,0,0,0,11.54-5.8V141.68c0-5-.95-6.35-4.12-11.16C296.87,127.28,283.93,127.87,272.5,128.48Z"/><path class="cls-24" d="M298.62,132.25H272.5c-8.38,0-9.38-5-9.38-8.75s2.47-8.5,8.43-8.5,8.14,3,12.29,2.88,10.78,0,15.16,0,11.27,3.62,13.2,9.62,1.68,11.3,1.68,17.15S309.5,159,306,162.29v-18S301.38,142.12,298.62,132.25Z"/><path class="cls-22" d="M306,139.33c2.58-1.75,6.58-1.25,6.17,3.5s-3.17,8.59-6.17,8-2.75-6.18-2.75-6.18Z"/><path class="cls-23" d="M273.27,139.33c-2.59-1.75-6.59-1.25-6.17,3.5s3.17,8.59,6.17,8,2.75-6.18,2.75-6.18Z"/><circle class="cls-25" cx="295" cy="142.38" r="5.75"/><circle class="cls-25" cx="277.3" cy="142.38" r="5.75"/><path class="cls-22" d="M285.25,143.19c-1.19,2.12-3.56,3.81-3.63,5.25s4.44,1.68,4.44,1.68"/><path class="cls-26" d="M285.25,143.19c-1.19,2.12-3.56,3.81-3.63,5.25s4.44,1.68,4.44,1.68"/><circle class="cls-26" cx="291.5" cy="156.81" r="1"/><path class="cls-27" d="M303.24,138.41c0-6.92-3.57-11.41-10.74-15.7a71.41,71.41,0,0,1-7.13-4.87l-1.53,0c-4.15.12-6.34-2.88-12.29-2.88s-8.43,4.75-8.43,8.5,1,8.75,9.38,8.75h26.12a25.84,25.84,0,0,0,4.5,9.43C303.2,140.6,303.24,139.5,303.24,138.41Z"/><rect class="cls-8" x="163.67" y="229.17" width="81.33" height="26.29" rx="5.08"/><rect class="cls-3" x="145.17" y="229.17" width="81.33" height="26.29" rx="5.08"/><rect class="cls-8" x="143.75" y="135.25" width="113.17" height="76.5" rx="7.21"/><rect class="cls-3" x="136.08" y="135.25" width="113.17" height="76.5" rx="7.21"/><rect class="cls-3" x="251.5" y="160.25" width="1.44" height="4.38"/><rect class="cls-3" x="251.5" y="168.59" width="1.44" height="4.38"/><rect class="cls-3" x="251.5" y="200.65" width="1.44" height="4.38"/><rect class="cls-8" x="165.17" y="225.23" width="70.33" height="3.93" rx="1.23"/><rect class="cls-3" x="157.5" y="225.23" width="70.33" height="3.93" rx="1.23"/><rect class="cls-8" x="169.83" y="156.33" width="45.67" height="47.5" rx="5.25"/><rect class="cls-8" x="182.29" y="201" width="20.75" height="24.23"/><circle class="cls-3" cx="186.5" cy="208.25" r="1.56"/><line class="cls-28" x1="185.4" y1="209.35" x2="187.6" y2="207.15"/><circle class="cls-3" cx="198.77" cy="208.25" r="1.56"/><line class="cls-28" x1="197.67" y1="209.35" x2="199.88" y2="207.15"/><rect class="cls-3" x="17.08" y="56.13" width="106.67" height="108.1"/><rect class="cls-23" x="17.08" y="56.13" width="106.67" height="13.71"/><rect class="cls-8" x="27.04" y="76.59" width="16.25" height="3.13"/><rect class="cls-23" x="27.04" y="82.84" width="16.25" height="3.13"/><rect class="cls-8" x="27.04" y="95.41" width="16.25" height="3.13"/><rect class="cls-23" x="37.17" y="89.09" width="71.75" height="3.13"/><rect class="cls-8" x="37.17" y="101.59" width="71.75" height="3.13"/><rect class="cls-23" x="37.17" y="107.84" width="71.75" height="3.13"/><rect class="cls-23" x="37.17" y="120.07" width="71.75" height="3.13"/><rect class="cls-23" x="37.17" y="101.66" width="71.75" height="3.13"/><rect class="cls-23" x="37.17" y="114.09" width="37.12" height="3.13"/><rect class="cls-23" x="37.17" y="138.74" width="37.12" height="3.13"/><rect class="cls-8" x="27.04" y="126.15" width="16.25" height="3.13"/><rect class="cls-8" x="27.04" y="132.4" width="16.25" height="3.13"/><rect class="cls-23" x="37.17" y="144.82" width="71.75" height="3.13"/><rect class="cls-23" x="37.17" y="151.07" width="37.12" height="3.13"/><text class="cls-29" transform="translate(27.04 67.19)">&lt;/&gt;</text><polygon class="cls-24" points="120.75 255.46 105.38 255.46 102.38 223.13 123.75 223.13 120.75 255.46"/><ellipse class="cls-30" cx="110.13" cy="239" rx="2.13" ry="3.38"/><line class="cls-31" x1="110.13" y1="235.63" x2="110.13" y2="242.38"/><path class="cls-30" d="M118.49,238c-1,1.56-2.63,2.32-3.61,1.68s-1-2.42,0-4,2.63-2.32,3.62-1.68S119.5,236.43,118.49,238Z"/><line class="cls-31" x1="118.54" y1="234.01" x2="114.88" y2="239.68"/><text class="cls-32" transform="translate(105.12 231.67)"><tspan class="cls-33">C</tspan><tspan x="2.73" y="0">OFFEE</tspan></text><path class="cls-6" d="M100.67,178.33H66.25A21.21,21.21,0,0,1,45,157.12V145.46a12,12,0,0,1,12-12H71.92a13.46,13.46,0,0,1,13.46,13.46A7.12,7.12,0,0,0,92.5,154h15.29a16,16,0,0,1,16,16v24.88A10.12,10.12,0,0,1,113.62,205H96.5a3.72,3.72,0,1,0,0,7.44h16.56a10.68,10.68,0,0,1,10.69,10.68H79.62a15.25,15.25,0,0,1,0-30.5h21a7.12,7.12,0,1,0,0-14.24"/><rect class="cls-3" x="334.17" y="92.07" width="106.67" height="76.91"/><rect class="cls-23" x="334.17" y="92.07" width="106.67" height="13.71"/><rect class="cls-8" x="344.13" y="112.53" width="16.25" height="3.13"/><rect class="cls-23" x="344.13" y="118.78" width="16.25" height="3.13"/><rect class="cls-8" x="344.13" y="131.35" width="16.25" height="3.13"/><rect class="cls-23" x="354.25" y="125.03" width="71.75" height="3.13"/><rect class="cls-8" x="354.25" y="137.53" width="71.75" height="3.13"/><rect class="cls-23" x="354.25" y="143.78" width="71.75" height="3.13"/><rect class="cls-23" x="354.25" y="156.01" width="71.75" height="3.13"/><rect class="cls-23" x="354.25" y="137.6" width="71.75" height="3.13"/><rect class="cls-23" x="354.25" y="150.03" width="37.13" height="3.13"/><text class="cls-29" transform="translate(344.12 103.13)">&lt;/&gt;</text><path class="cls-24" d="M361.5,262.46H100a3.5,3.5,0,0,1-3.5-3.5h0a3.5,3.5,0,0,1,3.5-3.5H361.5A3.5,3.5,0,0,1,365,259h0A3.5,3.5,0,0,1,361.5,262.46Z"/><path class="cls-15" d="M105.59,412.46l-.31,0a2.12,2.12,0,0,1-1.8-2.41l21.4-150.82a2.13,2.13,0,1,1,4.21.6l-21.4,150.82A2.13,2.13,0,0,1,105.59,412.46Z"/><path class="cls-15" d="M342.49,412.46a2.14,2.14,0,0,1-2.11-1.83L319,259.81a2.13,2.13,0,1,1,4.21-.6L344.59,410a2.12,2.12,0,0,1-1.8,2.41Z"/><rect class="cls-3" x="377.54" y="162.29" width="106.67" height="107.38"/><rect class="cls-23" x="377.54" y="162.29" width="106.67" height="13.71"/><rect class="cls-8" x="387.5" y="182.75" width="16.25" height="3.13"/><rect class="cls-8" x="387.5" y="189" width="16.25" height="3.13"/><rect class="cls-8" x="387.5" y="226.5" width="16.25" height="3.13"/><rect class="cls-8" x="387.5" y="239" width="16.25" height="3.13"/><rect class="cls-8" x="397.63" y="195.25" width="71.75" height="3.13"/><rect class="cls-23" x="397.63" y="201.5" width="71.75" height="3.13"/><rect class="cls-23" x="397.63" y="207.75" width="71.75" height="3.13"/><rect class="cls-23" x="397.63" y="214" width="71.75" height="3.13"/><rect class="cls-23" x="397.63" y="245.25" width="71.75" height="3.13"/><rect class="cls-23" x="397.63" y="251.5" width="71.75" height="3.13"/><rect class="cls-23" x="397.63" y="257.75" width="52.25" height="3.13"/><rect class="cls-23" x="397.63" y="232.75" width="71.75" height="3.13"/><rect class="cls-23" x="397.63" y="220.25" width="37.13" height="3.13"/><text class="cls-29" transform="translate(388.62 172.56)">&lt;/&gt;</text></g><g id="DESIGNED_BY_FREEPIK" data-name="DESIGNED BY FREEPIK"><path d="M275.6,458.93a7.3,7.3,0,0,0-1.1,1.45l-.47-.24a.61.61,0,0,0-.66-.47.61.61,0,0,0-.53.67.6.6,0,0,0,.67.53.41.41,0,0,0,.19-.05l.45.23a7.1,7.1,0,0,0-.54,1.75l.74.13a6.51,6.51,0,0,1,1.8-3.47Z"/><path d="M281.09,456.63h-.51l-.07-.62a.72.72,0,0,0-.53-1.28.73.73,0,0,0-.63.8.71.71,0,0,0,.41.56l.07.63a7.57,7.57,0,0,0-2.06.64l.33.69a6.82,6.82,0,0,1,3-.68,7.37,7.37,0,0,1,1.48.16l.16-.74A8.23,8.23,0,0,0,281.09,456.63Z"/><path d="M287.69,459.17a.6.6,0,1,0-.14-1.19.59.59,0,0,0-.53.6l-.42.37a7.41,7.41,0,0,0-1.41-1.14l-.4.64a6.76,6.76,0,0,1,2.56,2.92l.69-.31a7.14,7.14,0,0,0-.94-1.54l.4-.35Z"/><path d="M280.54,466.83c-.38,0-.77,0-1.15,0a15.87,15.87,0,0,1-2.48-.18,7.94,7.94,0,0,1-1.27-.29A6.2,6.2,0,0,0,287,465a10,10,0,0,1-2.46,1.12A16.69,16.69,0,0,1,280.54,466.83Z"/><path d="M281.09,458.14a6,6,0,0,0-6.08,5.95,5.93,5.93,0,0,0,.14,1.26c.67.48,2.7.89,5.35.73a11.55,11.55,0,0,0,6.67-2.16,5.44,5.44,0,0,0-.05-.58A6,6,0,0,0,281.09,458.14Zm-2.16,6.52a1.85,1.85,0,1,1,1.85-1.85A1.85,1.85,0,0,1,278.93,464.66Zm4.74-.91a1.36,1.36,0,1,1,1.36-1.36A1.36,1.36,0,0,1,283.67,463.75Z"/><path d="M297.1,460a2.82,2.82,0,0,0-1.39-.24c-.55.07-.84.34-.84,1v.86h2.23v1.72h-2.23v5.46h-1.93v-5.46H291.6v-1.72h1.34v-.88c0-1.68.89-2.79,2.57-2.79a4.09,4.09,0,0,1,1.59.31Z"/><path d="M301.8,463.34a3.23,3.23,0,0,0-.53,0,1.43,1.43,0,0,0-1.51,1.61v3.91h-1.93v-7.18h1.87v.79a2.27,2.27,0,0,1,2-1,1.8,1.8,0,0,1,1.1.34Z"/><path d="M309.47,465.22a6,6,0,0,1,0,.65h-5.09a1.74,1.74,0,0,0,1.85,1.49,2.88,2.88,0,0,0,1.81-.69l1.13,1.24a4.33,4.33,0,0,1-3.05,1.09,3.78,3.78,0,0,1-.1-7.55A3.47,3.47,0,0,1,309.47,465.22Zm-5.12-.67h3.18a1.6,1.6,0,0,0-3.18,0Z"/><path d="M317.12,465.22a6,6,0,0,1,0,.65H312a1.72,1.72,0,0,0,1.84,1.49,2.88,2.88,0,0,0,1.81-.69l1.14,1.24a4.37,4.37,0,0,1-3.06,1.09,3.78,3.78,0,0,1-.1-7.55A3.47,3.47,0,0,1,317.12,465.22Zm-5.12-.67h3.18a1.55,1.55,0,0,0-1.56-1.43A1.57,1.57,0,0,0,312,464.55Z"/><path d="M325.46,465.23A3.55,3.55,0,0,1,322,469a2.65,2.65,0,0,1-2.11-.93v3.71H318V461.64h1.89v.8a2.58,2.58,0,0,1,2.14-1A3.55,3.55,0,0,1,325.46,465.23Zm-5.67,0a1.85,1.85,0,1,0,1.84-2A1.83,1.83,0,0,0,319.79,465.23Z"/><path d="M328.57,459.3a1.24,1.24,0,1,1-1.24-1.24A1.22,1.22,0,0,1,328.57,459.3Zm-.26,9.52h-1.93v-7.18h1.93Z"/><path d="M331.53,464.2l2.7-2.56h2.37L333.12,465l3.5,3.8h-2.37l-2.72-2.9v2.9H329.6V458.16h1.93Z"/><path d="M199.91,468.75V467.7a3,3,0,0,1-2.39,1.23c-1.84,0-3.14-1.41-3.14-3.71s1.28-3.72,3.14-3.72a2.94,2.94,0,0,1,2.39,1.25V459H201v9.77Zm0-1.92v-3.2a2.63,2.63,0,0,0-2.12-1.15c-1.42,0-2.27,1.17-2.27,2.74s.85,2.73,2.27,2.73A2.61,2.61,0,0,0,199.91,466.83Z"/><path d="M202.43,465.21a3.55,3.55,0,0,1,3.49-3.71c2.14,0,3.4,1.67,3.4,3.79v.28h-5.73a2.49,2.49,0,0,0,2.55,2.45,3.1,3.1,0,0,0,2.18-.89l.53.71a3.84,3.84,0,0,1-2.81,1.09A3.51,3.51,0,0,1,202.43,465.21Zm3.47-2.8a2.35,2.35,0,0,0-2.31,2.36h4.64A2.29,2.29,0,0,0,205.9,462.41Z"/><path d="M210.11,467.81l.57-.79a3.17,3.17,0,0,0,2.33,1c1.08,0,1.67-.51,1.67-1.21,0-1.72-4.38-.66-4.38-3.28,0-1.1.95-2,2.63-2a3.61,3.61,0,0,1,2.63,1l-.52.76a2.76,2.76,0,0,0-2.11-.9c-1,0-1.56.49-1.56,1.12,0,1.55,4.38.53,4.38,3.28,0,1.19-1,2.14-2.79,2.14A3.72,3.72,0,0,1,210.11,467.81Z"/><path d="M217,459.93a.74.74,0,0,1,.73-.74.74.74,0,1,1,0,1.48A.74.74,0,0,1,217,459.93Zm.19,8.82v-7.07h1.1v7.07Z"/><path d="M220.08,470.57l.56-.82a2.7,2.7,0,0,0,2.3,1,2,2,0,0,0,2.27-2.12v-1a3,3,0,0,1-2.37,1.26c-1.85,0-3.15-1.38-3.15-3.66s1.29-3.68,3.15-3.68a2.92,2.92,0,0,1,2.37,1.25v-1.07h1.1v6.87c0,2.34-1.64,3.07-3.37,3.07A3.63,3.63,0,0,1,220.08,470.57Zm5.13-3.85v-3.09a2.6,2.6,0,0,0-2.11-1.15c-1.42,0-2.27,1.13-2.27,2.7s.85,2.69,2.27,2.69A2.62,2.62,0,0,0,225.21,466.72Z"/><path d="M232.91,468.75v-4.63c0-1.24-.63-1.64-1.58-1.64a2.73,2.73,0,0,0-2.09,1.1v5.17h-1.1v-7.07h1.1v1a3.51,3.51,0,0,1,2.52-1.2,2,2,0,0,1,2.25,2.29v5Z"/><path d="M235.43,465.21a3.55,3.55,0,0,1,3.49-3.71c2.14,0,3.4,1.67,3.4,3.79v.28h-5.73a2.5,2.5,0,0,0,2.55,2.45,3.1,3.1,0,0,0,2.18-.89l.53.71a3.82,3.82,0,0,1-2.81,1.09A3.51,3.51,0,0,1,235.43,465.21Zm3.47-2.8a2.36,2.36,0,0,0-2.31,2.36h4.64A2.28,2.28,0,0,0,238.9,462.41Z"/><path d="M248.85,468.75V467.7a3,3,0,0,1-2.39,1.23c-1.84,0-3.15-1.41-3.15-3.71s1.29-3.72,3.15-3.72a3,3,0,0,1,2.39,1.25V459H250v9.77Zm0-1.92v-3.2a2.66,2.66,0,0,0-2.12-1.15c-1.42,0-2.27,1.17-2.27,2.74s.85,2.73,2.27,2.73A2.64,2.64,0,0,0,248.85,466.83Z"/><path d="M255.19,468.75V459h1.1v3.77a2.93,2.93,0,0,1,2.39-1.25c1.84,0,3.15,1.47,3.15,3.72s-1.31,3.71-3.15,3.71a3,3,0,0,1-2.39-1.23v1.05Zm3.21-.8c1.44,0,2.29-1.16,2.29-2.73s-.85-2.74-2.29-2.74a2.63,2.63,0,0,0-2.11,1.15v3.2A2.6,2.6,0,0,0,258.4,468Z"/><path d="M263,470.52a1.53,1.53,0,0,0,.6.12,1,1,0,0,0,1.05-.75l.47-1.06-3-7.15h1.19l2.36,5.8,2.34-5.8h1.2l-3.54,8.51a2.1,2.1,0,0,1-2.08,1.43,3.52,3.52,0,0,1-.81-.1Z"/></g></svg>