<svg xmlns="http://www.w3.org/2000/svg" xmlns:xlink="http://www.w3.org/1999/xlink" viewBox="0 0 500 500"><defs><style>.cls-1{fill:url(#Degradado_sin_nombre_4);}.cls-2{fill:#fafafb;}.cls-3{fill:#4343e6;}.cls-4{fill:#e7c957;}.cls-5{fill:#00c4ff;}.cls-6{fill:#393f76;}.cls-7{fill:#f7e02c;}.cls-8{fill:#a1bc31;}.cls-9{fill:#11185a;}.cls-10{fill:#72b4cc;}.cls-11{font-size:7.23px;}.cls-11,.cls-17,.cls-19,.cls-22{fill:#fff;}.cls-11,.cls-17,.cls-19{font-family:Montserrat-Bold, Montserrat;font-weight:700;}.cls-12{letter-spacing:-0.01em;}.cls-13{letter-spacing:-0.01em;}.cls-14{letter-spacing:-0.01em;}.cls-15{letter-spacing:-0.01em;}.cls-16{fill:#f1d35e;}.cls-17{font-size:13.84px;}.cls-18{letter-spacing:-0.01em;}.cls-19{font-size:9px;}.cls-20{letter-spacing:-0.06em;}.cls-21{letter-spacing:0em;}.cls-23{fill:#f7f7f8;}.cls-24{fill:#f8f6f5;}.cls-25{fill:#d7d8dc;}.cls-26{fill:#1f1a82;}.cls-27{fill:#3832b2;}.cls-28{opacity:0.28;fill:url(#Degradado_sin_nombre_3);}.cls-29{fill:#dbdadb;}.cls-30{fill:#edeef0;}.cls-31{fill:#bebec0;}.cls-32{fill:#1313bd;}.cls-33{fill:#ffc09d;}.cls-34{fill:#f1ce43;}.cls-35{fill:#f1b81d;}.cls-36{fill:#ffb78f;}.cls-37{fill:#3333e6;}.cls-38{fill:#1212b0;}</style><radialGradient id="Degradado_sin_nombre_4" cx="255" cy="200" r="315.01" gradientUnits="userSpaceOnUse"><stop offset="0" stop-color="#18217d"/><stop offset="0.79" stop-color="#121a61"/><stop offset="1" stop-color="#11185a"/></radialGradient><linearGradient id="Degradado_sin_nombre_3" x1="284.04" y1="207.08" x2="329.66" y2="207.08" gradientUnits="userSpaceOnUse"><stop offset="0" stop-color="#fff" stop-opacity="0.2"/><stop offset="1" stop-color="#fff"/></linearGradient></defs><g id="BACKGROUND"><rect class="cls-1" width="500" height="500"/></g><g id="OBJECTS"><path class="cls-2" d="M106.63,99.62v-4.5a.85.85,0,0,0-.85-.84H81.4a.85.85,0,0,0-.85.84v191.6a.85.85,0,0,0,.85.85H194.14a.85.85,0,0,0,.85-.85V101.32a.85.85,0,0,0-.85-.85H107.47A.85.85,0,0,1,106.63,99.62Z" transform="translate(0 0)"/><rect class="cls-3" x="46.23" y="138.81" width="183.09" height="110.42" transform="translate(331.79 56.25) rotate(90)"/><rect class="cls-4" x="92.45" y="108.25" width="8.28" height="1.24"/><rect class="cls-4" x="92.45" y="158.95" width="8.28" height="1.24"/><rect class="cls-4" x="98.35" y="115.53" width="8.28" height="1.24"/><rect class="cls-5" x="107.43" y="115.53" width="8.28" height="1.24"/><rect class="cls-5" x="116.51" y="115.53" width="20.39" height="1.24"/><rect class="cls-6" x="92.45" y="111.15" width="8.28" height="1.24"/><rect class="cls-6" x="107.43" y="118.27" width="12.84" height="1.24"/><rect class="cls-6" x="120.97" y="118.27" width="30.46" height="1.24"/><rect class="cls-6" x="152.12" y="118.27" width="9.72" height="1.24"/><rect class="cls-6" x="162.54" y="118.27" width="11.46" height="1.24"/><rect class="cls-6" x="114.49" y="121.01" width="25.35" height="1.24"/><rect class="cls-6" x="140.67" y="121.01" width="33.33" height="1.24"/><rect class="cls-6" x="107.43" y="121.01" width="6.07" height="1.24"/><rect class="cls-4" x="174.81" y="121.01" width="8.28" height="1.24"/><rect class="cls-4" x="98.35" y="124.83" width="8.28" height="1.24"/><rect class="cls-4" x="98.35" y="134.94" width="8.28" height="1.24"/><rect class="cls-4" x="107.43" y="127.57" width="8.28" height="1.24"/><rect class="cls-5" x="116.51" y="127.57" width="20.39" height="1.24"/><rect class="cls-5" x="116.51" y="140.86" width="5.34" height="1.24"/><rect class="cls-6" x="107.43" y="130.31" width="12.84" height="1.24"/><rect class="cls-6" x="120.97" y="130.31" width="30.46" height="1.24"/><rect class="cls-6" x="152.12" y="130.31" width="9.72" height="1.24"/><rect class="cls-6" x="162.54" y="130.31" width="11.46" height="1.24"/><rect class="cls-6" x="114.49" y="133.06" width="25.35" height="1.24"/><rect class="cls-6" x="107.43" y="133.06" width="6.07" height="1.24"/><rect class="cls-4" x="140.67" y="133.06" width="8.28" height="1.24"/><rect class="cls-4" x="98.35" y="138.12" width="8.28" height="1.24"/><rect class="cls-4" x="98.35" y="155.46" width="8.28" height="1.24"/><rect class="cls-4" x="107.43" y="140.86" width="8.28" height="1.24"/><rect class="cls-4" x="107.43" y="153.13" width="8.28" height="1.24"/><rect class="cls-4" x="116.13" y="143.17" width="3.37" height="1.24"/><rect class="cls-6" x="120.16" y="143.17" width="5.06" height="1.24"/><rect class="cls-6" x="125.68" y="143.17" width="5.61" height="1.24"/><rect class="cls-6" x="131.79" y="143.17" width="4.21" height="1.24"/><rect class="cls-6" x="120.16" y="150.74" width="5.06" height="1.24"/><rect class="cls-6" x="125.68" y="150.74" width="5.61" height="1.24"/><rect class="cls-6" x="131.79" y="150.74" width="4.21" height="1.24"/><rect class="cls-6" x="120.16" y="145.69" width="5.06" height="1.24"/><rect class="cls-6" x="128.83" y="145.69" width="7.16" height="1.24"/><rect class="cls-6" x="125.68" y="145.69" width="2.75" height="1.24"/><rect class="cls-6" x="120.16" y="148.22" width="2.01" height="1.24"/><rect class="cls-6" x="122.67" y="148.22" width="2.55" height="1.24"/><rect class="cls-6" x="125.68" y="148.22" width="10.32" height="1.24"/><rect class="cls-4" x="116.13" y="145.69" width="3.37" height="1.24"/><rect class="cls-4" x="116.13" y="148.22" width="3.37" height="1.24"/><rect class="cls-4" x="116.13" y="150.74" width="3.37" height="1.24"/><rect class="cls-4" x="136.66" y="143.17" width="3.37" height="1.24"/><rect class="cls-4" x="136.66" y="145.69" width="3.37" height="1.24"/><rect class="cls-4" x="136.66" y="148.22" width="3.37" height="1.24"/><rect class="cls-4" x="136.66" y="150.74" width="3.37" height="1.24"/><rect class="cls-4" x="92.45" y="162.86" width="8.28" height="1.24"/><rect class="cls-4" x="98.35" y="170.14" width="8.28" height="1.24"/><rect class="cls-5" x="107.43" y="170.14" width="8.28" height="1.24"/><rect class="cls-5" x="116.51" y="170.14" width="20.39" height="1.24"/><rect class="cls-6" x="92.45" y="165.77" width="8.28" height="1.24"/><rect class="cls-6" x="107.43" y="172.89" width="12.84" height="1.24"/><rect class="cls-6" x="120.97" y="172.89" width="30.46" height="1.24"/><rect class="cls-6" x="152.12" y="172.89" width="9.72" height="1.24"/><rect class="cls-6" x="162.54" y="172.89" width="11.46" height="1.24"/><rect class="cls-6" x="114.49" y="175.63" width="25.35" height="1.24"/><rect class="cls-6" x="140.67" y="175.63" width="33.33" height="1.24"/><rect class="cls-6" x="107.43" y="175.63" width="6.07" height="1.24"/><rect class="cls-4" x="174.81" y="175.63" width="8.28" height="1.24"/><rect class="cls-4" x="98.35" y="179.44" width="8.28" height="1.24"/><rect class="cls-4" x="98.35" y="189.55" width="8.28" height="1.24"/><rect class="cls-4" x="107.43" y="182.18" width="8.28" height="1.24"/><rect class="cls-5" x="116.51" y="182.18" width="20.39" height="1.24"/><rect class="cls-6" x="107.43" y="184.93" width="12.84" height="1.24"/><rect class="cls-6" x="120.97" y="184.93" width="30.46" height="1.24"/><rect class="cls-6" x="152.12" y="184.93" width="9.72" height="1.24"/><rect class="cls-6" x="162.54" y="184.93" width="11.46" height="1.24"/><rect class="cls-6" x="114.49" y="187.67" width="25.35" height="1.24"/><rect class="cls-6" x="107.43" y="187.67" width="6.07" height="1.24"/><rect class="cls-4" x="140.67" y="187.67" width="8.28" height="1.24"/><rect class="cls-4" x="98.35" y="192.73" width="8.28" height="1.24"/><rect class="cls-4" x="92.45" y="196.26" width="8.28" height="1.24"/><rect class="cls-4" x="92.45" y="246.95" width="8.28" height="1.24"/><rect class="cls-4" x="98.35" y="203.53" width="8.28" height="1.24"/><rect class="cls-5" x="107.43" y="203.53" width="8.28" height="1.24"/><rect class="cls-5" x="116.51" y="203.53" width="20.39" height="1.24"/><rect class="cls-6" x="92.45" y="199.16" width="8.28" height="1.24"/><rect class="cls-6" x="107.43" y="206.28" width="12.84" height="1.24"/><rect class="cls-6" x="120.97" y="206.28" width="30.46" height="1.24"/><rect class="cls-6" x="152.12" y="206.28" width="9.72" height="1.24"/><rect class="cls-6" x="162.54" y="206.28" width="11.46" height="1.24"/><rect class="cls-6" x="114.49" y="209.02" width="25.35" height="1.24"/><rect class="cls-6" x="140.67" y="209.02" width="33.33" height="1.24"/><rect class="cls-6" x="107.43" y="209.02" width="6.07" height="1.24"/><rect class="cls-4" x="174.81" y="209.02" width="8.28" height="1.24"/><rect class="cls-4" x="98.35" y="212.83" width="8.28" height="1.24"/><rect class="cls-4" x="98.35" y="222.94" width="8.28" height="1.24"/><rect class="cls-4" x="107.43" y="215.58" width="8.28" height="1.24"/><rect class="cls-5" x="116.51" y="215.58" width="20.39" height="1.24"/><rect class="cls-5" x="116.51" y="228.86" width="5.34" height="1.24"/><rect class="cls-6" x="107.43" y="218.32" width="12.84" height="1.24"/><rect class="cls-6" x="120.97" y="218.32" width="30.46" height="1.24"/><rect class="cls-6" x="152.12" y="218.32" width="9.72" height="1.24"/><rect class="cls-6" x="162.54" y="218.32" width="11.46" height="1.24"/><rect class="cls-6" x="114.49" y="221.06" width="25.35" height="1.24"/><rect class="cls-6" x="107.43" y="221.06" width="6.07" height="1.24"/><rect class="cls-4" x="140.67" y="221.06" width="8.28" height="1.24"/><rect class="cls-4" x="98.35" y="226.12" width="8.28" height="1.24"/><rect class="cls-4" x="98.35" y="243.46" width="8.28" height="1.24"/><rect class="cls-4" x="107.43" y="228.86" width="8.28" height="1.24"/><rect class="cls-4" x="107.43" y="241.13" width="8.28" height="1.24"/><rect class="cls-4" x="116.13" y="231.18" width="3.37" height="1.24"/><rect class="cls-6" x="120.16" y="231.18" width="5.06" height="1.24"/><rect class="cls-6" x="125.68" y="231.18" width="5.61" height="1.24"/><rect class="cls-6" x="131.79" y="231.18" width="4.21" height="1.24"/><rect class="cls-6" x="120.16" y="238.74" width="5.06" height="1.24"/><rect class="cls-6" x="125.68" y="238.74" width="5.61" height="1.24"/><rect class="cls-6" x="131.79" y="238.74" width="4.21" height="1.24"/><rect class="cls-6" x="120.16" y="233.7" width="5.06" height="1.24"/><rect class="cls-6" x="128.83" y="233.7" width="7.16" height="1.24"/><rect class="cls-6" x="125.68" y="233.7" width="2.75" height="1.24"/><rect class="cls-6" x="120.16" y="236.22" width="2.01" height="1.24"/><rect class="cls-6" x="122.67" y="236.22" width="2.55" height="1.24"/><rect class="cls-6" x="125.68" y="236.22" width="10.32" height="1.24"/><rect class="cls-4" x="116.13" y="233.7" width="3.37" height="1.24"/><rect class="cls-4" x="116.13" y="236.22" width="3.37" height="1.24"/><rect class="cls-4" x="116.13" y="238.74" width="3.37" height="1.24"/><rect class="cls-4" x="136.66" y="231.18" width="3.37" height="1.24"/><rect class="cls-4" x="136.66" y="233.7" width="3.37" height="1.24"/><rect class="cls-4" x="136.66" y="236.22" width="3.37" height="1.24"/><rect class="cls-4" x="136.66" y="238.74" width="3.37" height="1.24"/><rect class="cls-4" x="92.45" y="250.87" width="8.28" height="1.24"/><rect class="cls-4" x="98.35" y="258.15" width="8.28" height="1.24"/><rect class="cls-5" x="107.43" y="258.15" width="8.28" height="1.24"/><rect class="cls-5" x="116.51" y="258.15" width="20.39" height="1.24"/><rect class="cls-6" x="92.45" y="253.77" width="8.28" height="1.24"/><rect class="cls-6" x="107.43" y="260.89" width="12.84" height="1.24"/><rect class="cls-6" x="120.97" y="260.89" width="30.46" height="1.24"/><rect class="cls-6" x="152.12" y="260.89" width="9.72" height="1.24"/><rect class="cls-6" x="162.54" y="260.89" width="11.46" height="1.24"/><rect class="cls-6" x="114.49" y="263.63" width="25.35" height="1.24"/><rect class="cls-6" x="140.67" y="263.63" width="33.33" height="1.24"/><rect class="cls-6" x="107.43" y="263.63" width="6.07" height="1.24"/><rect class="cls-4" x="174.81" y="263.63" width="8.28" height="1.24"/><rect class="cls-4" x="98.35" y="267.45" width="8.28" height="1.24"/><rect class="cls-4" x="98.35" y="277.56" width="8.28" height="1.24"/><rect class="cls-4" x="107.43" y="270.19" width="8.28" height="1.24"/><rect class="cls-5" x="116.51" y="270.19" width="20.39" height="1.24"/><rect class="cls-6" x="107.43" y="272.93" width="12.84" height="1.24"/><rect class="cls-6" x="120.97" y="272.93" width="30.46" height="1.24"/><rect class="cls-6" x="152.12" y="272.93" width="9.72" height="1.24"/><rect class="cls-6" x="162.54" y="272.93" width="11.46" height="1.24"/><rect class="cls-6" x="114.49" y="275.67" width="25.35" height="1.24"/><rect class="cls-6" x="107.43" y="275.67" width="6.07" height="1.24"/><rect class="cls-4" x="140.67" y="275.67" width="8.28" height="1.24"/><rect class="cls-4" x="98.35" y="280.74" width="8.28" height="1.24"/><circle class="cls-4" cx="84.65" cy="98.34" r="0.9"/><circle class="cls-7" cx="88.1" cy="98.34" r="0.9"/><path class="cls-8" d="M90.64,98.34a.91.91,0,1,1,.91.91A.9.9,0,0,1,90.64,98.34Z" transform="translate(0 0)"/><path class="cls-2" d="M193.1,49.27v-5.7A1.07,1.07,0,0,0,192,42.5H161.12A1.07,1.07,0,0,0,160,43.57V286.5a1.07,1.07,0,0,0,1.08,1.07h143a1.07,1.07,0,0,0,1.07-1.07V51.42a1.07,1.07,0,0,0-1.07-1.07H194.18A1.08,1.08,0,0,1,193.1,49.27Z" transform="translate(0 0)"/><rect class="cls-9" x="116.52" y="98.96" width="232.13" height="140" transform="translate(401.55 -63.63) rotate(90)"/><rect class="cls-4" x="175.13" y="60.21" width="10.5" height="1.57"/><rect class="cls-4" x="175.13" y="124.49" width="10.5" height="1.57"/><rect class="cls-4" x="182.6" y="69.44" width="10.5" height="1.57"/><rect class="cls-5" x="194.12" y="69.44" width="10.5" height="1.57"/><rect class="cls-5" x="205.64" y="69.44" width="25.85" height="1.57"/><rect class="cls-6" x="175.13" y="63.89" width="10.5" height="1.57"/><rect class="cls-6" x="194.12" y="72.92" width="16.28" height="1.57"/><rect class="cls-6" x="211.29" y="72.92" width="38.61" height="1.57"/><rect class="cls-6" x="250.79" y="72.92" width="12.32" height="1.57"/><rect class="cls-6" x="264" y="72.92" width="14.53" height="1.57"/><rect class="cls-6" x="203.07" y="76.4" width="32.14" height="1.57"/><rect class="cls-6" x="236.27" y="76.4" width="42.26" height="1.57"/><rect class="cls-6" x="194.12" y="76.4" width="7.69" height="1.57"/><rect class="cls-4" x="279.55" y="76.4" width="10.5" height="1.57"/><rect class="cls-4" x="182.6" y="81.23" width="10.5" height="1.57"/><rect class="cls-4" x="182.6" y="94.05" width="10.5" height="1.57"/><rect class="cls-4" x="194.12" y="84.71" width="10.5" height="1.57"/><rect class="cls-5" x="205.64" y="84.71" width="25.85" height="1.57"/><rect class="cls-5" x="205.64" y="101.56" width="6.77" height="1.57"/><rect class="cls-6" x="194.12" y="88.19" width="16.28" height="1.57"/><rect class="cls-6" x="211.29" y="88.19" width="38.61" height="1.57"/><rect class="cls-6" x="250.79" y="88.19" width="12.32" height="1.57"/><rect class="cls-6" x="264" y="88.19" width="14.53" height="1.57"/><rect class="cls-6" x="203.07" y="91.66" width="32.14" height="1.57"/><rect class="cls-6" x="194.12" y="91.66" width="7.69" height="1.57"/><rect class="cls-4" x="236.27" y="91.66" width="10.5" height="1.57"/><rect class="cls-4" x="182.6" y="98.08" width="10.5" height="1.57"/><rect class="cls-4" x="182.6" y="120.07" width="10.5" height="1.57"/><rect class="cls-4" x="194.12" y="101.56" width="10.5" height="1.57"/><rect class="cls-4" x="194.12" y="117.11" width="10.5" height="1.57"/><rect class="cls-4" x="205.15" y="104.49" width="4.28" height="1.57"/><rect class="cls-6" x="210.27" y="104.49" width="6.42" height="1.57"/><rect class="cls-6" x="217.26" y="104.49" width="7.11" height="1.57"/><rect class="cls-6" x="225.01" y="104.49" width="5.33" height="1.57"/><rect class="cls-6" x="210.27" y="114.08" width="6.42" height="1.57"/><rect class="cls-6" x="217.26" y="114.08" width="7.11" height="1.57"/><rect class="cls-6" x="225.01" y="114.08" width="5.33" height="1.57"/><rect class="cls-6" x="210.27" y="107.69" width="6.42" height="1.57"/><rect class="cls-6" x="221.26" y="107.69" width="9.08" height="1.57"/><rect class="cls-6" x="217.26" y="107.69" width="3.49" height="1.57"/><rect class="cls-6" x="210.27" y="110.88" width="2.54" height="1.57"/><rect class="cls-6" x="213.45" y="110.88" width="3.24" height="1.57"/><rect class="cls-6" x="217.26" y="110.88" width="13.08" height="1.57"/><rect class="cls-4" x="205.15" y="107.69" width="4.28" height="1.57"/><rect class="cls-4" x="205.15" y="110.88" width="4.28" height="1.57"/><rect class="cls-4" x="205.15" y="114.08" width="4.28" height="1.57"/><rect class="cls-4" x="231.19" y="104.49" width="4.28" height="1.57"/><rect class="cls-4" x="231.19" y="107.69" width="4.28" height="1.57"/><rect class="cls-4" x="231.19" y="110.88" width="4.28" height="1.57"/><rect class="cls-4" x="231.19" y="114.08" width="4.28" height="1.57"/><rect class="cls-4" x="175.13" y="129.46" width="10.5" height="1.57"/><rect class="cls-4" x="182.6" y="138.69" width="10.5" height="1.57"/><rect class="cls-5" x="194.12" y="138.69" width="10.5" height="1.57"/><rect class="cls-5" x="205.64" y="138.69" width="25.85" height="1.57"/><rect class="cls-6" x="175.13" y="133.14" width="10.5" height="1.57"/><rect class="cls-6" x="194.12" y="142.16" width="16.28" height="1.57"/><rect class="cls-6" x="211.29" y="142.16" width="38.61" height="1.57"/><rect class="cls-6" x="250.79" y="142.16" width="12.32" height="1.57"/><rect class="cls-6" x="264" y="142.16" width="14.53" height="1.57"/><rect class="cls-6" x="203.07" y="145.64" width="32.14" height="1.57"/><rect class="cls-6" x="236.27" y="145.64" width="42.26" height="1.57"/><rect class="cls-6" x="194.12" y="145.64" width="7.69" height="1.57"/><rect class="cls-4" x="279.55" y="145.64" width="10.5" height="1.57"/><rect class="cls-4" x="182.6" y="150.48" width="10.5" height="1.57"/><rect class="cls-4" x="182.6" y="163.29" width="10.5" height="1.57"/><rect class="cls-4" x="194.12" y="153.95" width="10.5" height="1.57"/><rect class="cls-5" x="205.64" y="153.95" width="25.85" height="1.57"/><rect class="cls-6" x="194.12" y="157.43" width="16.28" height="1.57"/><rect class="cls-6" x="211.29" y="157.43" width="38.61" height="1.57"/><rect class="cls-6" x="250.79" y="157.43" width="12.32" height="1.57"/><rect class="cls-6" x="264" y="157.43" width="14.53" height="1.57"/><rect class="cls-6" x="203.07" y="160.91" width="32.14" height="1.57"/><rect class="cls-6" x="194.12" y="160.91" width="7.69" height="1.57"/><rect class="cls-4" x="236.27" y="160.91" width="10.5" height="1.57"/><rect class="cls-4" x="182.6" y="167.32" width="10.5" height="1.57"/><rect class="cls-4" x="175.13" y="171.8" width="10.5" height="1.57"/><rect class="cls-4" x="175.13" y="236.07" width="10.5" height="1.57"/><rect class="cls-4" x="182.6" y="181.02" width="10.5" height="1.57"/><rect class="cls-5" x="194.12" y="181.02" width="10.5" height="1.57"/><rect class="cls-5" x="205.64" y="181.02" width="25.85" height="1.57"/><rect class="cls-6" x="175.13" y="175.47" width="10.5" height="1.57"/><rect class="cls-6" x="194.12" y="184.5" width="16.28" height="1.57"/><rect class="cls-6" x="211.29" y="184.5" width="38.61" height="1.57"/><rect class="cls-6" x="250.79" y="184.5" width="12.32" height="1.57"/><rect class="cls-6" x="264" y="184.5" width="14.53" height="1.57"/><rect class="cls-6" x="203.07" y="187.98" width="32.14" height="1.57"/><rect class="cls-6" x="236.27" y="187.98" width="42.26" height="1.57"/><rect class="cls-6" x="194.12" y="187.98" width="7.69" height="1.57"/><rect class="cls-4" x="279.55" y="187.98" width="10.5" height="1.57"/><rect class="cls-4" x="182.6" y="192.81" width="10.5" height="1.57"/><rect class="cls-4" x="182.6" y="205.63" width="10.5" height="1.57"/><rect class="cls-4" x="194.12" y="196.29" width="10.5" height="1.57"/><rect class="cls-5" x="205.64" y="196.29" width="25.85" height="1.57"/><rect class="cls-5" x="205.64" y="213.14" width="6.77" height="1.57"/><rect class="cls-6" x="194.12" y="199.77" width="16.28" height="1.57"/><rect class="cls-6" x="211.29" y="199.77" width="38.61" height="1.57"/><rect class="cls-6" x="250.79" y="199.77" width="12.32" height="1.57"/><rect class="cls-6" x="264" y="199.77" width="14.53" height="1.57"/><rect class="cls-6" x="203.07" y="203.24" width="32.14" height="1.57"/><rect class="cls-6" x="194.12" y="203.24" width="7.69" height="1.57"/><rect class="cls-4" x="236.27" y="203.24" width="10.5" height="1.57"/><rect class="cls-4" x="182.6" y="209.66" width="10.5" height="1.57"/><rect class="cls-4" x="182.6" y="231.65" width="10.5" height="1.57"/><rect class="cls-4" x="194.12" y="213.14" width="10.5" height="1.57"/><rect class="cls-4" x="194.12" y="228.69" width="10.5" height="1.57"/><rect class="cls-4" x="205.15" y="216.07" width="4.28" height="1.57"/><rect class="cls-6" x="210.27" y="216.07" width="6.42" height="1.57"/><rect class="cls-6" x="217.26" y="216.07" width="7.11" height="1.57"/><rect class="cls-6" x="225.01" y="216.07" width="5.33" height="1.57"/><rect class="cls-6" x="210.27" y="225.66" width="6.42" height="1.57"/><rect class="cls-6" x="217.26" y="225.66" width="7.11" height="1.57"/><rect class="cls-6" x="225.01" y="225.66" width="5.33" height="1.57"/><rect class="cls-6" x="210.27" y="219.27" width="6.42" height="1.57"/><rect class="cls-6" x="221.26" y="219.27" width="9.08" height="1.57"/><rect class="cls-6" x="217.26" y="219.27" width="3.49" height="1.57"/><rect class="cls-6" x="210.27" y="222.46" width="2.54" height="1.57"/><rect class="cls-6" x="213.45" y="222.46" width="3.24" height="1.57"/><rect class="cls-6" x="217.26" y="222.46" width="13.08" height="1.57"/><rect class="cls-4" x="205.15" y="219.27" width="4.28" height="1.57"/><rect class="cls-4" x="205.15" y="222.46" width="4.28" height="1.57"/><rect class="cls-4" x="205.15" y="225.66" width="4.28" height="1.57"/><rect class="cls-4" x="231.19" y="216.07" width="4.28" height="1.57"/><rect class="cls-4" x="231.19" y="219.27" width="4.28" height="1.57"/><rect class="cls-4" x="231.19" y="222.46" width="4.28" height="1.57"/><rect class="cls-4" x="231.19" y="225.66" width="4.28" height="1.57"/><rect class="cls-4" x="175.13" y="241.04" width="10.5" height="1.57"/><rect class="cls-4" x="182.6" y="250.27" width="10.5" height="1.57"/><rect class="cls-5" x="194.12" y="250.27" width="10.5" height="1.57"/><rect class="cls-5" x="205.64" y="250.27" width="25.85" height="1.57"/><rect class="cls-6" x="175.13" y="244.72" width="10.5" height="1.57"/><rect class="cls-6" x="194.12" y="253.74" width="16.28" height="1.57"/><rect class="cls-6" x="211.29" y="253.74" width="38.61" height="1.57"/><rect class="cls-6" x="250.79" y="253.74" width="12.32" height="1.57"/><rect class="cls-6" x="264" y="253.74" width="14.53" height="1.57"/><rect class="cls-6" x="203.07" y="257.22" width="32.14" height="1.57"/><rect class="cls-6" x="236.27" y="257.22" width="42.26" height="1.57"/><rect class="cls-6" x="194.12" y="257.22" width="7.69" height="1.57"/><rect class="cls-4" x="279.55" y="257.22" width="10.5" height="1.57"/><rect class="cls-4" x="182.6" y="262.06" width="10.5" height="1.57"/><rect class="cls-4" x="182.6" y="274.87" width="10.5" height="1.57"/><rect class="cls-4" x="194.12" y="265.53" width="10.5" height="1.57"/><rect class="cls-5" x="205.64" y="265.53" width="25.85" height="1.57"/><rect class="cls-6" x="194.12" y="269.01" width="16.28" height="1.57"/><rect class="cls-6" x="211.29" y="269.01" width="38.61" height="1.57"/><rect class="cls-6" x="250.79" y="269.01" width="12.32" height="1.57"/><rect class="cls-6" x="264" y="269.01" width="14.53" height="1.57"/><rect class="cls-6" x="203.07" y="272.49" width="32.14" height="1.57"/><rect class="cls-6" x="194.12" y="272.49" width="7.69" height="1.57"/><rect class="cls-4" x="236.27" y="272.49" width="10.5" height="1.57"/><rect class="cls-4" x="182.6" y="278.9" width="10.5" height="1.57"/><path class="cls-4" d="M164.1,47.65a1.15,1.15,0,1,1,1.14,1.15A1.14,1.14,0,0,1,164.1,47.65Z" transform="translate(0 0)"/><path class="cls-7" d="M168.47,47.65a1.15,1.15,0,1,1,1.14,1.15A1.14,1.14,0,0,1,168.47,47.65Z" transform="translate(0 0)"/><path class="cls-8" d="M172.84,47.65A1.15,1.15,0,1,1,174,48.8,1.14,1.14,0,0,1,172.84,47.65Z" transform="translate(0 0)"/><rect class="cls-2" x="271.32" y="85.13" width="89.26" height="39" rx="1.64"/><rect class="cls-5" x="304.98" y="68.54" width="21.94" height="77.29" transform="translate(423.13 -208.77) rotate(90)"/><path class="cls-4" d="M277.31,91.09a1.81,1.81,0,1,1,1.8,1.81A1.79,1.79,0,0,1,277.31,91.09Z" transform="translate(0 0)"/><path class="cls-7" d="M284.19,91.09A1.81,1.81,0,1,1,286,92.9,1.8,1.8,0,0,1,284.19,91.09Z" transform="translate(0 0)"/><path class="cls-8" d="M291.08,91.09a1.81,1.81,0,1,1,1.8,1.81A1.79,1.79,0,0,1,291.08,91.09Z" transform="translate(0 0)"/><rect class="cls-10" x="329.25" y="90.19" width="25.34" height="1.81"/><text class="cls-11" transform="translate(282.33 109.38)">&lt;!DO<tspan class="cls-12" x="18.5" y="0">C</tspan><tspan class="cls-13" x="23.75" y="0">T</tspan><tspan class="cls-14" x="28.13" y="0">Y</tspan><tspan class="cls-15" x="32.97" y="0">P</tspan><tspan x="38.19" y="0">E html&gt;</tspan></text><rect class="cls-2" x="368.65" y="66.49" width="63.01" height="39" rx="1.64"/><rect class="cls-16" x="389.19" y="63.02" width="21.94" height="51.04" transform="translate(488.69 -311.62) rotate(90)"/><circle class="cls-4" cx="376.44" cy="72.44" r="1.81"/><circle class="cls-7" cx="383.33" cy="72.44" r="1.81"/><circle class="cls-8" cx="390.21" cy="72.44" r="1.81"/><rect class="cls-5" x="400.34" y="71.54" width="25.34" height="1.81"/><text class="cls-17" transform="translate(385.07 92.4)"><tspan class="cls-18">C</tspan><tspan x="10.06" y="0">SS</tspan></text><rect class="cls-5" x="368.65" y="114.58" width="63.01" height="19.98" rx="1.53"/><text class="cls-19" transform="translate(373.57 127.4)">&lt;div&gt;&lt;<tspan class="cls-20" x="30.49" y="0">/</tspan><tspan class="cls-21" x="33.44" y="0">div&gt;</tspan></text><path class="cls-22" d="M137.49,63.21h-1.1a8,8,0,0,0-.45-1.7l.95-.55a.26.26,0,0,0,.09-.35l-1-1.71a.26.26,0,0,0-.35-.09l-.94.54a8.21,8.21,0,0,0-1.25-1.25l.55-.94a.26.26,0,0,0-.1-.35l-1.71-1a.25.25,0,0,0-.35.1l-.54.94a8.28,8.28,0,0,0-1.71-.45v-1.1a.25.25,0,0,0-.25-.25h-2a.25.25,0,0,0-.25.25v1.1a8.12,8.12,0,0,0-1.71.45l-.54-.94a.25.25,0,0,0-.35-.1l-1.71,1a.25.25,0,0,0-.1.35l.55.94A8.21,8.21,0,0,0,122,59.35l-.94-.54a.26.26,0,0,0-.35.09l-1,1.71a.26.26,0,0,0,.09.35l1,.55a8,8,0,0,0-.45,1.7h-1.1a.25.25,0,0,0-.25.25v2a.26.26,0,0,0,.25.26h1.1a8,8,0,0,0,.45,1.7l-1,.54a.26.26,0,0,0-.09.35l1,1.72a.26.26,0,0,0,.35.09l.94-.55a8.21,8.21,0,0,0,1.25,1.25l-.55,1a.24.24,0,0,0,.1.34l1.71,1a.26.26,0,0,0,.35-.09l.54-.95a8.13,8.13,0,0,0,1.71.46v1.09a.25.25,0,0,0,.25.25h2a.25.25,0,0,0,.25-.25V72.5A8.3,8.3,0,0,0,131.3,72l.54.95a.26.26,0,0,0,.35.09l1.71-1a.25.25,0,0,0,.1-.34l-.55-1a8.21,8.21,0,0,0,1.25-1.25l.94.55A.26.26,0,0,0,136,70l1-1.72a.26.26,0,0,0-.09-.35l-.95-.54a8,8,0,0,0,.45-1.7h1.1a.26.26,0,0,0,.25-.26v-2A.25.25,0,0,0,137.49,63.21Zm-9.14,6.19a4.95,4.95,0,1,1,4.94-5A4.95,4.95,0,0,1,128.35,69.4Z" transform="translate(0 0)"/><path class="cls-22" d="M123.94,46.28h-1.79a13.13,13.13,0,0,0-.75-2.8l1.55-.89a.41.41,0,0,0,.15-.57l-1.62-2.81a.42.42,0,0,0-.57-.15l-1.54.89a13.18,13.18,0,0,0-2.05-2l.9-1.55a.43.43,0,0,0-.16-.57l-2.81-1.62a.42.42,0,0,0-.56.15l-.9,1.55a13.64,13.64,0,0,0-2.79-.74V33.34a.42.42,0,0,0-.42-.42h-3.24a.42.42,0,0,0-.42.42v1.79a13.81,13.81,0,0,0-2.79.74l-.89-1.55a.43.43,0,0,0-.57-.15l-2.81,1.62a.41.41,0,0,0-.15.57l.89,1.55a13.12,13.12,0,0,0-2,2L97,39.06a.42.42,0,0,0-.57.15L94.82,42a.42.42,0,0,0,.15.57l1.55.89a13.73,13.73,0,0,0-.74,2.8H94a.41.41,0,0,0-.42.41v3.25a.42.42,0,0,0,.42.41h1.79a13.64,13.64,0,0,0,.74,2.79L95,54a.41.41,0,0,0-.15.56l1.62,2.81a.43.43,0,0,0,.57.16l1.55-.9a13.18,13.18,0,0,0,2,2l-.89,1.54a.41.41,0,0,0,.15.57l2.81,1.62a.41.41,0,0,0,.57-.15l.89-1.55a13.21,13.21,0,0,0,2.79.75v1.79a.42.42,0,0,0,.42.42h3.24a.42.42,0,0,0,.42-.42V61.5a13,13,0,0,0,2.79-.75l.9,1.55a.4.4,0,0,0,.56.15l2.81-1.62a.42.42,0,0,0,.16-.57l-.9-1.54a13.25,13.25,0,0,0,2.05-2l1.54.9a.42.42,0,0,0,.57-.16l1.62-2.81A.4.4,0,0,0,123,54l-1.55-.9a13,13,0,0,0,.75-2.79h1.79a.41.41,0,0,0,.41-.41V46.69A.41.41,0,0,0,123.94,46.28ZM109,56.41a8.1,8.1,0,1,1,8.1-8.1A8.1,8.1,0,0,1,109,56.41Z" transform="translate(0 0)"/><path class="cls-22" d="M107.61,48.31A1.35,1.35,0,1,1,109,49.66,1.36,1.36,0,0,1,107.61,48.31Z" transform="translate(0 0)"/><path class="cls-22" d="M127.6,64.45a.75.75,0,0,1,1.5,0,.75.75,0,1,1-1.5,0Z" transform="translate(0 0)"/><path class="cls-22" d="M349.54,61.85h-.2a7.86,7.86,0,0,0-7.64-6.09,8.11,8.11,0,0,0-2.05.28,10.82,10.82,0,0,0-20.53,3.32,7.85,7.85,0,0,0,1.72,15.5h28.7a6.51,6.51,0,0,0,0-13Z" transform="translate(0 0)"/><path class="cls-22" d="M324.88,148.73l4.58,5.08,4.69,5.2a.13.13,0,0,0,.21,0l4.69-5.2,4.58-5.08a.14.14,0,0,0-.11-.24h-4.43v-7.62h-9.66v7.62H325A.15.15,0,0,0,324.88,148.73Z" transform="translate(0 0)"/><rect class="cls-22" x="329.42" y="137.91" width="9.66" height="1.56"/><rect class="cls-22" x="329.42" y="134.97" width="9.66" height="1.56"/><path class="cls-23" d="M288,166.12H426.77a4,4,0,0,1,4,4v99.48a.74.74,0,0,1-.74.74H284.78a.74.74,0,0,1-.74-.74V170.12A4,4,0,0,1,288,166.12Z"/><rect class="cls-24" x="310.46" y="150.03" width="93.88" height="136.4" transform="translate(575.63 -139.18) rotate(90)"/><rect class="cls-22" x="285.76" y="174.74" width="93.88" height="86.98" transform="translate(550.93 -114.47) rotate(90)"/><rect class="cls-4" x="329.04" y="131.46" width="7.32" height="86.98" transform="translate(507.65 -157.75) rotate(90)"/><rect class="cls-3" x="303.54" y="192.52" width="58.32" height="86.98" transform="translate(568.71 -96.69) rotate(90)"/><rect class="cls-22" x="316.37" y="205.35" width="32.66" height="86.98" transform="translate(581.54 -83.86) rotate(90)"/><rect class="cls-5" x="353.96" y="193.52" width="93.88" height="49.41" transform="translate(619.12 -182.67) rotate(90)"/><path class="cls-25" d="M357.4,169.9a.87.87,0,0,1,0-1.73.87.87,0,1,1,0,1.73Zm0-1.21a.35.35,0,0,0-.35.35.36.36,0,0,0,.71,0A.35.35,0,0,0,357.4,168.69Z" transform="translate(0 0)"/><rect class="cls-22" x="390.54" y="179.81" width="9.65" height="1.03"/><rect class="cls-22" x="390.54" y="182.03" width="13.98" height="1.03"/><rect class="cls-22" x="390.54" y="184.26" width="9.65" height="1.03"/><rect class="cls-22" x="390.54" y="186.49" width="13.98" height="1.03"/><rect class="cls-26" x="383.72" y="177.58" width="14.72" height="1.03"/><rect class="cls-4" x="383.72" y="179.81" width="5.78" height="1.03"/><rect class="cls-4" x="383.72" y="182.03" width="5.78" height="1.03"/><rect class="cls-4" x="383.72" y="184.26" width="5.78" height="1.03"/><rect class="cls-4" x="383.72" y="186.49" width="5.78" height="1.03"/><path class="cls-26" d="M382.08,178.1a.52.52,0,1,1,.51.51A.51.51,0,0,1,382.08,178.1Z" transform="translate(0 0)"/><rect class="cls-22" x="390.54" y="194.44" width="9.65" height="1.03"/><rect class="cls-22" x="390.54" y="196.67" width="13.98" height="1.03"/><rect class="cls-22" x="390.54" y="198.9" width="9.65" height="1.03"/><rect class="cls-22" x="390.54" y="201.13" width="13.98" height="1.03"/><rect class="cls-27" x="383.72" y="192.22" width="14.72" height="1.03"/><rect class="cls-4" x="383.72" y="194.44" width="5.78" height="1.03"/><rect class="cls-4" x="383.72" y="196.67" width="5.78" height="1.03"/><rect class="cls-4" x="383.72" y="198.9" width="5.78" height="1.03"/><rect class="cls-4" x="383.72" y="201.13" width="5.78" height="1.03"/><path class="cls-27" d="M382.08,192.73a.52.52,0,1,1,.51.52A.51.51,0,0,1,382.08,192.73Z" transform="translate(0 0)"/><rect class="cls-22" x="390.54" y="209.08" width="9.65" height="1.03"/><rect class="cls-22" x="390.54" y="211.31" width="13.98" height="1.03"/><rect class="cls-22" x="390.54" y="213.54" width="9.65" height="1.03"/><rect class="cls-22" x="390.54" y="215.77" width="13.98" height="1.03"/><rect class="cls-27" x="383.72" y="206.85" width="14.72" height="1.03"/><rect class="cls-4" x="383.72" y="209.08" width="5.78" height="1.03"/><rect class="cls-4" x="383.72" y="211.31" width="5.78" height="1.03"/><rect class="cls-4" x="383.72" y="213.54" width="5.78" height="1.03"/><rect class="cls-4" x="383.72" y="215.77" width="5.78" height="1.03"/><path class="cls-27" d="M382.08,207.37a.52.52,0,1,1,.51.52A.51.51,0,0,1,382.08,207.37Z" transform="translate(0 0)"/><rect class="cls-22" x="390.54" y="223.72" width="9.65" height="1.03"/><rect class="cls-22" x="390.54" y="225.95" width="13.98" height="1.03"/><rect class="cls-22" x="390.54" y="228.18" width="9.65" height="1.03"/><rect class="cls-22" x="390.54" y="230.4" width="13.98" height="1.03"/><rect class="cls-26" x="383.72" y="221.49" width="14.72" height="1.03"/><rect class="cls-4" x="383.72" y="223.72" width="5.78" height="1.03"/><rect class="cls-4" x="383.72" y="225.95" width="5.78" height="1.03"/><rect class="cls-4" x="383.72" y="228.18" width="5.78" height="1.03"/><rect class="cls-4" x="383.72" y="230.4" width="5.78" height="1.03"/><path class="cls-26" d="M382.08,222a.52.52,0,1,1,.51.52A.51.51,0,0,1,382.08,222Z" transform="translate(0 0)"/><rect class="cls-22" x="390.54" y="238.36" width="9.65" height="1.03"/><rect class="cls-22" x="390.54" y="240.59" width="13.98" height="1.03"/><rect class="cls-22" x="390.54" y="242.81" width="9.65" height="1.03"/><rect class="cls-22" x="390.54" y="245.04" width="13.98" height="1.03"/><rect class="cls-26" x="383.72" y="236.13" width="14.72" height="1.03"/><rect class="cls-4" x="383.72" y="238.36" width="5.78" height="1.03"/><rect class="cls-4" x="383.72" y="240.59" width="5.78" height="1.03"/><rect class="cls-4" x="383.72" y="242.81" width="5.78" height="1.03"/><rect class="cls-4" x="383.72" y="245.04" width="5.78" height="1.03"/><path class="cls-26" d="M382.08,236.65a.52.52,0,1,1,1,0,.52.52,0,1,1-1,0Z" transform="translate(0 0)"/><rect class="cls-22" x="390.54" y="253" width="9.65" height="1.03"/><rect class="cls-22" x="390.54" y="255.23" width="13.98" height="1.03"/><rect class="cls-22" x="390.54" y="257.45" width="9.65" height="1.03"/><rect class="cls-22" x="390.54" y="259.68" width="13.98" height="1.03"/><rect class="cls-27" x="383.72" y="250.77" width="14.72" height="1.03"/><rect class="cls-4" x="383.72" y="253" width="5.78" height="1.03"/><rect class="cls-4" x="383.72" y="255.23" width="5.78" height="1.03"/><rect class="cls-4" x="383.72" y="257.45" width="5.78" height="1.03"/><rect class="cls-4" x="383.72" y="259.68" width="5.78" height="1.03"/><path class="cls-27" d="M382.08,251.29a.52.52,0,1,1,.51.51A.51.51,0,0,1,382.08,251.29Z" transform="translate(0 0)"/><rect class="cls-22" x="369.32" y="173.91" width="2.65" height="0.39"/><rect class="cls-22" x="369.32" y="174.75" width="2.65" height="0.39"/><rect class="cls-22" x="369.32" y="175.59" width="2.65" height="0.39"/><rect class="cls-16" x="297.31" y="173.91" width="11.88" height="2.07"/><rect class="cls-16" x="315.48" y="173.91" width="11.88" height="2.07"/><rect class="cls-16" x="333.65" y="173.91" width="11.88" height="2.07"/><rect class="cls-16" x="351.82" y="173.91" width="11.88" height="2.07"/><path class="cls-28" d="M329.66,166.12H288a4,4,0,0,0-4,4V248Z" transform="translate(0 0)"/><rect class="cls-29" x="299.81" y="250.77" width="15.93" height="0.52"/><rect class="cls-29" x="299.81" y="252.74" width="15.93" height="0.52"/><rect class="cls-29" x="299.81" y="254.71" width="15.93" height="0.52"/><rect class="cls-29" x="299.81" y="256.68" width="15.93" height="0.52"/><rect class="cls-29" x="299.81" y="258.65" width="15.93" height="0.52"/><rect class="cls-29" x="299.81" y="260.62" width="15.93" height="0.52"/><rect class="cls-29" x="324.73" y="250.77" width="15.93" height="0.52"/><rect class="cls-29" x="324.73" y="252.74" width="15.93" height="0.52"/><rect class="cls-29" x="324.73" y="254.71" width="15.93" height="0.52"/><rect class="cls-29" x="324.73" y="256.68" width="15.93" height="0.52"/><rect class="cls-29" x="324.73" y="258.65" width="15.93" height="0.52"/><rect class="cls-29" x="324.73" y="260.62" width="15.93" height="0.52"/><rect class="cls-29" x="349.65" y="250.77" width="15.93" height="0.52"/><rect class="cls-29" x="349.65" y="252.74" width="15.93" height="0.52"/><rect class="cls-29" x="349.65" y="254.71" width="15.93" height="0.52"/><rect class="cls-29" x="349.65" y="256.68" width="15.93" height="0.52"/><rect class="cls-29" x="349.65" y="258.65" width="15.93" height="0.52"/><rect class="cls-29" x="349.65" y="260.62" width="15.93" height="0.52"/><rect class="cls-30" x="306.73" y="201.13" width="51.94" height="3.44"/><rect class="cls-4" x="354.36" y="201.13" width="4.31" height="3.44"/><path class="cls-22" d="M357.53,203.64l-.36-.36a.88.88,0,0,0,.16-.51.92.92,0,1,0-.36.72l.35.36Zm-1.11-.25a.62.62,0,1,1,.62-.62A.63.63,0,0,1,356.42,203.39Z" transform="translate(0 0)"/><rect class="cls-31" x="307.97" y="201.83" width="0.23" height="2.03"/><rect class="cls-29" x="299.81" y="212.17" width="29.45" height="1.03"/><rect class="cls-29" x="299.81" y="214.91" width="29.45" height="1.03"/><rect class="cls-29" x="299.81" y="217.65" width="29.45" height="1.03"/><rect class="cls-29" x="299.81" y="220.4" width="29.45" height="1.03"/><rect class="cls-29" x="299.81" y="223.14" width="29.45" height="1.03"/><rect class="cls-29" x="299.81" y="225.89" width="29.45" height="1.03"/><rect class="cls-5" x="335.29" y="212.17" width="30.29" height="14.82"/><rect class="cls-4" x="362.26" y="223.66" width="3.32" height="3.32"/><polygon class="cls-30" points="364.8 225.25 363.99 225.25 363.99 224.44 363.86 224.44 363.86 225.25 363.04 225.25 363.04 225.39 363.86 225.39 363.86 226.2 363.99 226.2 363.99 225.39 364.8 225.39 364.8 225.25"/><polygon class="cls-22" points="364.8 226.54 365.64 229.02 366.31 228.35 367.16 229.21 367.47 228.9 366.62 228.04 367.28 227.38 364.8 226.54"/><circle class="cls-4" cx="332.7" cy="241.62" r="5.49"/><path class="cls-22" d="M335,243.77l-.19-.3a2.87,2.87,0,0,0,.37-.54l.35.08a.28.28,0,0,0,.33-.21l.21-.92a.28.28,0,0,0-.21-.33l-.35-.08a2.41,2.41,0,0,0-.12-.65l.31-.19a.28.28,0,0,0,.08-.38l-.51-.8a.28.28,0,0,0-.38-.09l-.3.2a2.78,2.78,0,0,0-.54-.38l.08-.35a.28.28,0,0,0-.21-.33l-.93-.2a.28.28,0,0,0-.33.2l-.07.35a2.41,2.41,0,0,0-.65.12l-.19-.3a.28.28,0,0,0-.38-.09l-.8.51a.28.28,0,0,0-.09.38l.19.3a3.29,3.29,0,0,0-.38.54l-.34-.08a.28.28,0,0,0-.33.21l-.21.93a.28.28,0,0,0,.21.33l.35.07a2.85,2.85,0,0,0,.11.65l-.3.2a.28.28,0,0,0-.08.38l.51.79a.28.28,0,0,0,.38.09l.3-.19a2.92,2.92,0,0,0,.54.38l-.08.34a.28.28,0,0,0,.21.33l.93.21a.27.27,0,0,0,.32-.21l.08-.35a2.85,2.85,0,0,0,.65-.11l.19.3a.28.28,0,0,0,.38.08l.8-.51A.28.28,0,0,0,335,243.77Zm-3.76-1.19a1.78,1.78,0,1,1,2.46.55A1.78,1.78,0,0,1,331.2,242.58Z" transform="translate(0 0)"/><path class="cls-22" d="M333.33,241.22a.75.75,0,0,0-1.26.8.74.74,0,0,0,1,.23A.74.74,0,0,0,333.33,241.22Z" transform="translate(0 0)"/><path class="cls-26" d="M302.29,241.56a5.49,5.49,0,1,1,5.49,5.48A5.49,5.49,0,0,1,302.29,241.56Z" transform="translate(0 0)"/><path class="cls-22" d="M308,244.59a.62.62,0,1,1-.34-1.19.62.62,0,0,1,.76.76A.59.59,0,0,1,308,244.59Z" transform="translate(0 0)"/><path class="cls-22" d="M306.59,242.81a.51.51,0,0,1,.16-.83,2.71,2.71,0,0,1,1.06-.21,2.85,2.85,0,0,1,1,.17.51.51,0,0,1,.19.84h0a.51.51,0,0,1-.54.12,1.57,1.57,0,0,0-.6-.12,1.75,1.75,0,0,0-.65.13.52.52,0,0,1-.57-.11Z" transform="translate(0 0)"/><path class="cls-22" d="M305.41,241.63a.51.51,0,0,1,.09-.8,4.29,4.29,0,0,1,2.31-.67,4.38,4.38,0,0,1,2.26.63.52.52,0,0,1,.08.8h0a.52.52,0,0,1-.62.08,3.27,3.27,0,0,0-3.49,0,.51.51,0,0,1-.63-.07Z" transform="translate(0 0)"/><path class="cls-22" d="M304.21,240.43a.51.51,0,0,1,.06-.77,6,6,0,0,1,7,0,.52.52,0,0,1,.07.78h0a.52.52,0,0,1-.67.05,5,5,0,0,0-5.8,0,.52.52,0,0,1-.67,0Z" transform="translate(0 0)"/><circle class="cls-27" cx="357.62" cy="241.62" r="5.49"/><path class="cls-22" d="M357.65,238.45a3.14,3.14,0,0,0-3.13,3.13,3.06,3.06,0,0,0,.39,1.51s-.28,1.06-.34,1.27-.06.23-.07.32,0,.13.1.11a1.06,1.06,0,0,0,.22-.06l1.22-.46a3.06,3.06,0,0,0,1.61.45,3.14,3.14,0,1,0,0-6.27ZM356,242.09a.47.47,0,0,1,0-.94.47.47,0,1,1,0,.94Zm1.63,0a.47.47,0,0,1,0-.94.47.47,0,1,1,0,.94Zm1.63,0a.47.47,0,1,1,.48-.47A.47.47,0,0,1,359.27,242.09Z" transform="translate(0 0)"/><path class="cls-32" d="M250.26,439A12.86,12.86,0,0,1,242,442l-2.43,0-.29-9.25H250.1a3.56,3.56,0,0,1,3.45,2.66,1.31,1.31,0,0,1-.45,1.32Z" transform="translate(0 0)"/><path class="cls-32" d="M262.56,439.11a12.8,12.8,0,0,0,8.25,2.94h2.43l.29-9.25H262.72a3.56,3.56,0,0,0-3.45,2.66,1.3,1.3,0,0,0,.45,1.31Z" transform="translate(0 0)"/><rect class="cls-22" x="77.22" y="283.24" width="357.79" height="7.36"/><path class="cls-32" d="M233.66,436.16h10.69a0,0,0,0,1,0,0v2.9a3,3,0,0,1-3,3h-4.77a3,3,0,0,1-3-3v-2.9A0,0,0,0,1,233.66,436.16Z"/><polygon class="cls-3" points="245.96 436.39 232.78 436.39 222.35 324.93 245.96 324.93 245.96 436.39"/><path class="cls-32" d="M267.15,436.16h10.69a0,0,0,0,1,0,0v2.9a3,3,0,0,1-3,3h-4.77a3,3,0,0,1-3-3v-2.9A0,0,0,0,1,267.15,436.16Z"/><polygon class="cls-3" points="279.45 436.39 266.27 436.39 266.27 324.93 289.88 324.93 279.45 436.39"/><rect class="cls-33" x="244" y="181.76" width="24.22" height="22.38"/><path class="cls-33" d="M231.46,156.31a2.74,2.74,0,0,0-2.74-2.74h0A2.74,2.74,0,0,0,226,156.7a50.21,50.21,0,0,1,2.15,6.25,13.65,13.65,0,0,1,0,5.9,1.81,1.81,0,0,0,1.77,2.22C232.85,171.14,231.46,156.31,231.46,156.31Z" transform="translate(0 0)"/><path class="cls-33" d="M280.77,156.31a2.74,2.74,0,0,1,2.74-2.74h0a2.74,2.74,0,0,1,2.71,3.13,50.21,50.21,0,0,0-2.15,6.25,13.65,13.65,0,0,0,0,5.9,1.81,1.81,0,0,1-1.77,2.22C279.38,171.14,280.77,156.31,280.77,156.31Z" transform="translate(0 0)"/><path class="cls-34" d="M282.52,158.72c0-10.82-3-19.47-9.1-24.75.85-2.68-.54-6.17-4.2-6.17a3.9,3.9,0,0,0-.5,0,6.2,6.2,0,0,0-12.35.16c-.06.09-.13.17-.2.26h-.06c-17.84,0-26.4,12.11-26.4,30.46,0,17,7.36,31,22.66,33a1.3,1.3,0,0,0,1.33,1.39,1.37,1.37,0,0,0,.66-.16,1.79,1.79,0,0,0,1.53.85H256a1.91,1.91,0,0,0,1.47-.75,1.15,1.15,0,0,0,.37.06H258a1.39,1.39,0,0,0,1.38-1.32C275,190.09,282.52,175.94,282.52,158.72Z" transform="translate(0 0)"/><path class="cls-35" d="M274.83,180.26c-7.79,5.7-18.67,8.13-27.08,3.86-8.24-4.18-13.35-11.57-15.67-20.34a50,50,0,0,1-.74-17.61,44.84,44.84,0,0,0-1.63,12.55c0,17,7.36,31,22.66,33a1.3,1.3,0,0,0,1.33,1.39,1.37,1.37,0,0,0,.66-.16,1.78,1.78,0,0,0,1.52.85H256a1.91,1.91,0,0,0,1.47-.75,1.15,1.15,0,0,0,.37.06H258a1.39,1.39,0,0,0,1.38-1.32c10-1.08,16.67-7.24,20.2-16A24.54,24.54,0,0,1,274.83,180.26Z" transform="translate(0 0)"/><path class="cls-36" d="M192.92,273.84h0a0,0,0,0,1,0,0v13.1a0,0,0,0,1,0,0h-8.74a0,0,0,0,1,0,0v-4.37A8.74,8.74,0,0,1,192.92,273.84Z"/><path class="cls-33" d="M199.36,245,184.5,285.47a5.78,5.78,0,0,0,.26,4.59l1.21,2.42a5.77,5.77,0,0,0,6.48,3h0a13.08,13.08,0,0,0,9.36-8.25l13.28-36.15Z" transform="translate(0 0)"/><path class="cls-36" d="M319.31,287h8.74v-4.37a8.74,8.74,0,0,0-8.74-8.73h0Z" transform="translate(0 0)"/><path class="cls-33" d="M312.87,245l14.86,40.45a5.78,5.78,0,0,1-.26,4.59l-1.21,2.42a5.77,5.77,0,0,1-6.48,3h0a13.08,13.08,0,0,1-9.36-8.25l-13.28-36.15Z" transform="translate(0 0)"/><path class="cls-3" d="M220.28,305.08c.16,12.74-.93,25.75,4.17,30.43,11.67,10.7,51.66,10.7,63.33,0,5.1-4.68,4-17.69,4.17-30.43Z" transform="translate(0 0)"/><path class="cls-5" d="M287.12,205.48a45.29,45.29,0,0,0-21-5H246.1A45.58,45.58,0,0,0,224.15,206c-10.46,5.73-23.5,17.26-30.13,40.21l25.21,10.27s-5.91,50,5.22,60.17c11.67,10.71,51.66,10.71,63.33,0,11.13-10.2,5.22-60.17,5.22-60.17l25.21-10.27C311.37,222.56,297.74,211,287.12,205.48Z" transform="translate(0 0)"/><path class="cls-37" d="M311.59,342.61a1.09,1.09,0,0,1,0-.18,11.84,11.84,0,0,0-13.24-10.79L286.07,333a271.51,271.51,0,0,1-59.91,0l-12.27-1.36a11.84,11.84,0,0,0-13.24,10.79,1.09,1.09,0,0,1,0,.18,5.81,5.81,0,0,0,5.84,6h99.27A5.81,5.81,0,0,0,311.59,342.61Z" transform="translate(0 0)"/><path class="cls-37" d="M256.11,321.67h0c-21.13,0-38.66-11.25-40.1-32.34L212.58,239c0-.11,0-.21,0-.32a23.26,23.26,0,0,1,23.23-24.53h40.65A23.27,23.27,0,0,1,299.65,239l-3.43,50.34C294.78,310.42,277.25,321.67,256.11,321.67Z" transform="translate(0 0)"/><path class="cls-38" d="M256.11,316.55h0c-32.42,0-40.1-27.22-40.1-27.22,1.44,21.09,19,32.34,40.1,32.34h0c21.14,0,38.67-11.25,40.11-32.34C296.22,289.33,287.69,316.55,256.11,316.55Z" transform="translate(0 0)"/><rect class="cls-5" x="240.94" y="247.36" width="30.35" height="15.64" rx="7.82"/><path class="cls-32" d="M256.11,368.77h0a6.89,6.89,0,0,1-6.89-6.89V253.56a2.51,2.51,0,0,1,2.51-2.51h8.77a2.51,2.51,0,0,1,2.51,2.51V361.88A6.89,6.89,0,0,1,256.11,368.77Z" transform="translate(0 0)"/><path class="cls-32" d="M297,357.59H215.19a9.2,9.2,0,0,1-9.2-9.2H306.24A9.2,9.2,0,0,1,297,357.59Z" transform="translate(0 0)"/><path class="cls-38" d="M275,363.1H237.26a5.52,5.52,0,0,1-5.52-5.51h48.75A5.52,5.52,0,0,1,275,363.1Z" transform="translate(0 0)"/><rect class="cls-32" x="253.35" y="366.01" width="5.52" height="65.77"/><path class="cls-32" d="M225.3,437.31a5.52,5.52,0,1,1-5.52-5.52A5.52,5.52,0,0,1,225.3,437.31Z" transform="translate(0 0)"/><path class="cls-37" d="M222.54,437.31a2.76,2.76,0,1,1-2.76-2.76A2.76,2.76,0,0,1,222.54,437.31Z" transform="translate(0 0)"/><path class="cls-32" d="M253.82,431.79v-8l-37.51,5.36a1.31,1.31,0,0,0-1.12,1.3h0a1.31,1.31,0,0,0,1.31,1.31Z" transform="translate(0 0)"/><path class="cls-32" d="M286.93,437.31a5.52,5.52,0,1,0,5.52-5.52A5.52,5.52,0,0,0,286.93,437.31Z" transform="translate(0 0)"/><circle class="cls-37" cx="292.44" cy="437.31" r="2.76"/><path class="cls-32" d="M258.41,431.79v-8l37.51,5.36a1.31,1.31,0,0,1,1.12,1.3h0a1.31,1.31,0,0,1-1.31,1.31Z" transform="translate(0 0)"/><polygon class="cls-32" points="257.49 439.14 253.81 439.14 252.89 425.35 258.41 425.35 257.49 439.14"/><path class="cls-37" d="M255.66,449.26h0a2.57,2.57,0,0,1-2.58-2.57V439a2.57,2.57,0,0,1,2.58-2.57h0a2.57,2.57,0,0,1,2.57,2.57v7.73A2.57,2.57,0,0,1,255.66,449.26Z" transform="translate(0 0)"/></g><g id="DESIGNED_BY_FREEPIK" data-name="DESIGNED BY FREEPIK"><path class="cls-22" d="M267.06,466.68a7,7,0,0,0-1.11,1.46l-.47-.25a.6.6,0,1,0-.51.74.64.64,0,0,0,.18-.06l.45.24a7.48,7.48,0,0,0-.54,1.74l.75.13a6.64,6.64,0,0,1,1.79-3.47Z" transform="translate(0 0)"/><path class="cls-22" d="M272.54,464.38l-.5,0-.08-.63a.72.72,0,1,0-.75.09l.07.62a7.6,7.6,0,0,0-2.06.65l.33.68a6.81,6.81,0,0,1,3-.67,6.64,6.64,0,0,1,1.48.16l.16-.75A8.07,8.07,0,0,0,272.54,464.38Z" transform="translate(0 0)"/><path class="cls-22" d="M279.15,466.93a.6.6,0,0,0-.15-1.2.61.61,0,0,0-.53.61l-.42.36a7.75,7.75,0,0,0-1.4-1.14l-.41.64a6.8,6.8,0,0,1,2.57,2.93l.69-.31a7,7,0,0,0-.95-1.55l.41-.35A.59.59,0,0,0,279.15,466.93Z" transform="translate(0 0)"/><path class="cls-22" d="M272,474.59l-1.16,0a16,16,0,0,1-2.48-.18,8.19,8.19,0,0,1-1.27-.29,6.19,6.19,0,0,0,11.34-1.38A9.83,9.83,0,0,1,276,473.9,17.66,17.66,0,0,1,272,474.59Z" transform="translate(0 0)"/><path class="cls-22" d="M272.54,465.9a6,6,0,0,0-6.07,5.94,5.86,5.86,0,0,0,.13,1.26c.68.48,2.71.89,5.35.73a11.45,11.45,0,0,0,6.67-2.16,5.65,5.65,0,0,0,0-.58A6,6,0,0,0,272.54,465.9Zm-2.15,6.51a1.85,1.85,0,1,1,1.85-1.85A1.85,1.85,0,0,1,270.39,472.41Zm4.73-.91a1.36,1.36,0,1,1,1.36-1.36A1.36,1.36,0,0,1,275.12,471.5Z" transform="translate(0 0)"/><path class="cls-22" d="M288.55,467.76a2.81,2.81,0,0,0-1.38-.23.86.86,0,0,0-.85,1v.87h2.23v1.72h-2.23v5.45h-1.93v-5.45h-1.34V469.4h1.34v-.89a2.46,2.46,0,0,1,2.57-2.78,3.88,3.88,0,0,1,1.59.31Z" transform="translate(0 0)"/><path class="cls-22" d="M293.25,471.1a3.27,3.27,0,0,0-.53-.05,1.44,1.44,0,0,0-1.51,1.61v3.91h-1.93V469.4h1.88v.78a2.26,2.26,0,0,1,2-1,1.79,1.79,0,0,1,1.09.33Z" transform="translate(0 0)"/><path class="cls-22" d="M300.92,473a5.79,5.79,0,0,1,0,.65H295.8a1.72,1.72,0,0,0,1.84,1.49,2.88,2.88,0,0,0,1.81-.69l1.14,1.25a4.37,4.37,0,0,1-3.06,1.09,3.78,3.78,0,0,1-.1-7.55A3.46,3.46,0,0,1,300.92,473Zm-5.12-.66H299a1.55,1.55,0,0,0-1.56-1.44A1.57,1.57,0,0,0,295.8,472.31Z" transform="translate(0 0)"/><path class="cls-22" d="M308.57,473a4.11,4.11,0,0,1,0,.65h-5.08a1.73,1.73,0,0,0,1.84,1.49,2.91,2.91,0,0,0,1.82-.69l1.13,1.25a4.35,4.35,0,0,1-3.06,1.09,3.78,3.78,0,0,1-.09-7.55A3.46,3.46,0,0,1,308.57,473Zm-5.11-.66h3.17a1.59,1.59,0,0,0-3.17,0Z" transform="translate(0 0)"/><path class="cls-22" d="M316.92,473a3.56,3.56,0,0,1-3.47,3.78,2.6,2.6,0,0,1-2.11-.94v3.71h-1.93V469.4h1.89v.79a2.61,2.61,0,0,1,2.14-1A3.56,3.56,0,0,1,316.92,473Zm-5.68,0a1.85,1.85,0,1,0,1.84-2A1.85,1.85,0,0,0,311.24,473Z" transform="translate(0 0)"/><path class="cls-22" d="M320,467.05a1.23,1.23,0,1,1-1.24-1.24A1.23,1.23,0,0,1,320,467.05Zm-.26,9.52h-1.93V469.4h1.93Z" transform="translate(0 0)"/><path class="cls-22" d="M323,472l2.7-2.55h2.37l-3.48,3.37,3.5,3.8H325.7l-2.71-2.9v2.9h-1.94V465.91H323Z" transform="translate(0 0)"/><path class="cls-22" d="M191.37,476.51v-1.06a3,3,0,0,1-2.39,1.23c-1.85,0-3.15-1.4-3.15-3.7s1.29-3.72,3.15-3.72a3,3,0,0,1,2.39,1.24v-3.76h1.09v9.77Zm0-1.92v-3.21a2.66,2.66,0,0,0-2.13-1.14c-1.42,0-2.27,1.17-2.27,2.74s.85,2.72,2.27,2.72A2.66,2.66,0,0,0,191.37,474.59Z" transform="translate(0 0)"/><path class="cls-22" d="M193.88,473a3.54,3.54,0,0,1,3.49-3.7c2.14,0,3.4,1.67,3.4,3.79v.28H195a2.49,2.49,0,0,0,2.55,2.44,3.07,3.07,0,0,0,2.18-.89l.53.72a3.84,3.84,0,0,1-2.81,1.08A3.51,3.51,0,0,1,193.88,473Zm3.48-2.8a2.37,2.37,0,0,0-2.32,2.36h4.65A2.3,2.3,0,0,0,197.36,470.16Z" transform="translate(0 0)"/><path class="cls-22" d="M201.56,475.57l.57-.79a3.21,3.21,0,0,0,2.33,1c1.08,0,1.67-.51,1.67-1.22,0-1.71-4.38-.66-4.38-3.28,0-1.1.95-2,2.64-2a3.58,3.58,0,0,1,2.62,1l-.51.76a2.77,2.77,0,0,0-2.11-.89c-1,0-1.57.48-1.57,1.11,0,1.55,4.38.53,4.38,3.28,0,1.19-.95,2.14-2.78,2.14A3.77,3.77,0,0,1,201.56,475.57Z" transform="translate(0 0)"/><path class="cls-22" d="M208.43,467.69a.74.74,0,1,1,1.48,0,.74.74,0,0,1-1.48,0Zm.19,8.82v-7.08h1.1v7.08Z" transform="translate(0 0)"/><path class="cls-22" d="M211.54,478.32l.55-.82a2.72,2.72,0,0,0,2.3,1,2,2,0,0,0,2.27-2.13v-1a3,3,0,0,1-2.37,1.26c-1.85,0-3.15-1.37-3.15-3.66s1.29-3.67,3.15-3.67a2.91,2.91,0,0,1,2.37,1.24v-1.07h1.1v6.87c0,2.34-1.64,3.08-3.37,3.08A3.6,3.6,0,0,1,211.54,478.32Zm5.12-3.85v-3.09a2.59,2.59,0,0,0-2.11-1.14c-1.42,0-2.27,1.12-2.27,2.69s.85,2.7,2.27,2.7A2.61,2.61,0,0,0,216.66,474.47Z" transform="translate(0 0)"/><path class="cls-22" d="M224.37,476.51v-4.63c0-1.25-.63-1.64-1.59-1.64a2.7,2.7,0,0,0-2.09,1.1v5.17h-1.1v-7.08h1.1v1a3.49,3.49,0,0,1,2.52-1.2,2,2,0,0,1,2.25,2.28v5Z" transform="translate(0 0)"/><path class="cls-22" d="M226.89,473a3.53,3.53,0,0,1,3.48-3.7c2.14,0,3.4,1.67,3.4,3.79v.28H228a2.49,2.49,0,0,0,2.55,2.44,3.07,3.07,0,0,0,2.18-.89l.53.72a3.84,3.84,0,0,1-2.81,1.08A3.5,3.5,0,0,1,226.89,473Zm3.47-2.8a2.37,2.37,0,0,0-2.32,2.36h4.65A2.3,2.3,0,0,0,230.36,470.16Z" transform="translate(0 0)"/><path class="cls-22" d="M240.3,476.51v-1.06a3,3,0,0,1-2.38,1.23c-1.85,0-3.15-1.4-3.15-3.7s1.28-3.72,3.15-3.72a2.93,2.93,0,0,1,2.38,1.24v-3.76h1.1v9.77Zm0-1.92v-3.21a2.62,2.62,0,0,0-2.12-1.14c-1.42,0-2.27,1.17-2.27,2.74s.85,2.72,2.27,2.72A2.63,2.63,0,0,0,240.3,474.59Z" transform="translate(0 0)"/><path class="cls-22" d="M246.64,476.51v-9.77h1.1v3.76a2.93,2.93,0,0,1,2.39-1.24c1.85,0,3.15,1.46,3.15,3.72s-1.3,3.7-3.15,3.7a3,3,0,0,1-2.39-1.23v1.06Zm3.21-.81c1.44,0,2.29-1.16,2.29-2.72s-.85-2.74-2.29-2.74a2.62,2.62,0,0,0-2.11,1.14v3.21A2.62,2.62,0,0,0,249.85,475.7Z" transform="translate(0 0)"/><path class="cls-22" d="M254.48,478.28a1.78,1.78,0,0,0,.6.12,1,1,0,0,0,1.06-.75l.47-1.07-3-7.15h1.18l2.36,5.8,2.35-5.8h1.2l-3.55,8.51a2.1,2.1,0,0,1-2.08,1.44,3.43,3.43,0,0,1-.8-.11Z" transform="translate(0 0)"/></g></svg>