<?xml version="1.0" encoding="utf-8"?>
<!-- Generator: Adobe Illustrator 27.5.0, SVG Export Plug-In . SVG Version: 6.00 Build 0)  -->
<svg version="1.1" xmlns="http://www.w3.org/2000/svg" xmlns:xlink="http://www.w3.org/1999/xlink" x="0px" y="0px"
	 viewBox="0 0 500 500" style="enable-background:new 0 0 500 500;" xml:space="preserve">
<g id="background2">
	<g>
		<g>
			<defs>
				<rect id="SVGID_1_" x="587.464" width="750" height="500"/>
			</defs>
			<clipPath id="SVGID_00000068652293911588996610000010382538628872936345_">
				<use xlink:href="#SVGID_1_"  style="overflow:visible;"/>
			</clipPath>
			<g style="opacity:0.3;clip-path:url(#SVGID_00000068652293911588996610000010382538628872936345_);">
				<g>
					<g>
						<g>
							<polygon style="fill:#F4F4F4;" points="714.798,163.761 426.715,163.761 426.715,162.761 714.604,162.761 752.107,147.76 
								782.818,148.335 782.799,149.335 752.291,148.764 							"/>
						</g>
						<g>
							<path style="fill:#F4F4F4;" d="M754.809,228.002h-83.584l-29.999-40c-11.598,0.036-209.204,0.653-213.165-0.008l0.164-0.986
								c3.915,0.653,211.156,0,213.248-0.007l0.251-0.001l0.151,0.201l29.85,39.8h83.084V228.002z"/>
						</g>
						<g>
							<polygon style="fill:#F4F4F4;" points="740.131,218.002 680.525,216.662 657.195,178.669 440.143,178.669 440.143,177.669 
								657.754,177.669 681.092,215.674 740.154,217.002 							"/>
						</g>
						<g>
							<path style="fill:#F4F4F4;" d="M788.803,349.334l-172.85-2.002l-38.665-33.333c-48.989-0.228-141.946-0.525-144.346-0.018
								l-0.292-0.956c2.021-0.672,130.217-0.093,144.827-0.025l0.185,0.001l0.14,0.12l38.528,33.215l172.484,1.998L788.803,349.334z
								"/>
						</g>
						<g>
							<path style="fill:#F4F4F4;" d="M751.475,302h-35.553l-28.667-31.331c-4.188,0.011-65.998,0.168-127.057,0.248
								c-36.954,0.049-66.406,0.059-87.537,0.033c-40.199-0.052-40.21-0.098-40.344-0.661l-0.091-0.386l0.359-0.183l0.221,0.442
								l0.123-0.469c3.635,0.621,252.034-0.02,254.544-0.026l0.221-0.001L716.363,301h35.111V302z"/>
						</g>
						<g>
							<polygon style="fill:#F4F4F4;" points="730.321,260 438.143,260 438.143,259 729.964,259 751.964,241 772.143,241 
								772.143,242 752.321,242 							"/>
						</g>
						<g>
							<path style="fill:#F4F4F4;" d="M655.473,291.334c-52.603-0.228-152.734-0.527-155.199-0.019l-0.289-0.956
								c2.021-0.672,139.79-0.093,155.492-0.025L655.473,291.334z"/>
						</g>
					</g>
					<g>
						<circle style="fill:#F4F4F4;" cx="500.141" cy="290.834" r="2.625"/>
					</g>
				</g>
			</g>
		</g>
	</g>
</g>
<g id="background1">
	<rect style="fill:#FBB03B;" width="500" height="500"/>
	<g style="opacity:0.4;">
		<defs>
			<rect id="SVGID_00000121237355579540118980000004352306648377718956_" style="opacity:0.4;" width="500" height="500"/>
		</defs>
		<clipPath id="SVGID_00000132054336312164835160000016657314092936125083_">
			<use xlink:href="#SVGID_00000121237355579540118980000004352306648377718956_"  style="overflow:visible;"/>
		</clipPath>
		<g style="clip-path:url(#SVGID_00000132054336312164835160000016657314092936125083_);">
			<g>
				<g>
					<g>
						<polygon style="fill:#F4F4F4;" points="3.834,163.761 -284.249,163.761 -284.249,162.761 3.641,162.761 41.144,147.76 
							71.854,148.335 71.835,149.335 41.327,148.764 						"/>
					</g>
					<g>
						<path style="fill:#F4F4F4;" d="M43.845,228.002h-83.584l-29.999-40c-11.598,0.036-209.204,0.653-213.166-0.008l0.164-0.986
							c3.915,0.653,211.157,0,213.248-0.007l0.251-0.001l0.151,0.201l29.85,39.8h83.084V228.002z"/>
					</g>
					<g>
						<polygon style="fill:#F4F4F4;" points="29.167,218.002 -30.438,216.662 -53.769,178.669 -270.822,178.669 -270.822,177.669 
							-53.21,177.669 -29.872,215.674 29.19,217.002 						"/>
					</g>
					<g>
						<rect x="-33.489" y="187.669" style="fill:#F4F4F4;" width="60" height="1"/>
					</g>
					<g>
						<path style="fill:#F4F4F4;" d="M4.669,175.976l-0.316-0.948c1.979-0.66,30.016-1.853,33.977-2.018l21.208-16.568l0.615,0.788
							l-21.46,16.766l-0.161,0.007C25.697,174.536,6.087,175.503,4.669,175.976z"/>
					</g>
					<g>
						<path style="fill:#F4F4F4;" d="M77.839,349.334l-172.849-2.002l-38.665-33.333c-48.99-0.228-141.947-0.525-144.346-0.018
							l-0.291-0.956c2.02-0.672,130.216-0.093,144.827-0.025l0.184,0.001l0.14,0.12l38.529,33.215l172.484,1.998L77.839,349.334z"/>
					</g>
					<g>
						<path style="fill:#F4F4F4;" d="M40.511,302H4.958l-28.667-31.331c-4.188,0.011-65.998,0.168-127.057,0.248
							c-36.954,0.049-66.406,0.059-87.537,0.033c-40.199-0.052-40.21-0.098-40.344-0.661l-0.091-0.386l0.36-0.183l0.221,0.442
							l0.123-0.469c3.635,0.621,252.034-0.02,254.544-0.026l0.221-0.001L5.399,301h35.111V302z"/>
					</g>
					<g>
						<polygon style="fill:#F4F4F4;" points="19.357,260 -272.822,260 -272.822,259 19,259 41,241 61.179,241 61.179,242 
							41.357,242 						"/>
					</g>
					<g>
						<rect x="-66.821" y="324.334" style="fill:#F4F4F4;" width="88.666" height="1"/>
					</g>
				</g>
				<g>
					<circle style="fill:#F4F4F4;" cx="41.177" cy="300.877" r="2.625"/>
				</g>
				<g>
					<path style="fill:#F4F4F4;" d="M66.425,240.875c0,1.451-1.174,2.625-2.623,2.625c-1.451,0-2.625-1.174-2.625-2.625
						c0-1.449,1.174-2.623,2.625-2.623C65.251,238.252,66.425,239.426,66.425,240.875z"/>
				</g>
				<g>
					<path style="fill:#F4F4F4;" d="M45.802,227.543c0,1.451-1.176,2.625-2.625,2.625c-1.449,0-2.625-1.174-2.625-2.625
						c0-1.449,1.176-2.623,2.625-2.623C44.626,224.92,45.802,226.094,45.802,227.543z"/>
				</g>
				<g>
					<path style="fill:#F4F4F4;" d="M31.802,217.502c0,1.449-1.174,2.625-2.623,2.625c-1.451,0-2.625-1.176-2.625-2.625
						c0-1.449,1.174-2.625,2.625-2.625C30.628,214.877,31.802,216.053,31.802,217.502z"/>
				</g>
				<g>
					<path style="fill:#F4F4F4;" d="M31.802,188.21c0,1.451-1.176,2.625-2.625,2.625c-1.449,0-2.625-1.174-2.625-2.625
						c0-1.449,1.176-2.623,2.625-2.623C30.626,185.586,31.802,186.76,31.802,188.21z"/>
				</g>
				<g>
					<path style="fill:#F4F4F4;" d="M7.136,175.501c0,1.451-1.176,2.625-2.625,2.625s-2.625-1.174-2.625-2.625
						c0-1.449,1.176-2.623,2.625-2.623S7.136,174.051,7.136,175.501z"/>
				</g>
				<g>
					<path style="fill:#F4F4F4;" d="M60.468,158.169c0,1.449-1.174,2.625-2.623,2.625c-1.451,0-2.625-1.176-2.625-2.625
						c0-1.449,1.174-2.625,2.625-2.625C59.294,155.544,60.468,156.719,60.468,158.169z"/>
				</g>
				<g>
					<path style="fill:#F4F4F4;" d="M75.177,148.835c0,1.451-1.174,2.625-2.623,2.625c-1.451,0-2.625-1.174-2.625-2.625
						c0-1.449,1.174-2.623,2.625-2.623C74.003,146.211,75.177,147.385,75.177,148.835z"/>
				</g>
				<g>
					<circle style="fill:#F4F4F4;" cx="21.177" cy="324.668" r="3.5"/>
				</g>
			</g>
			<g>
				<g>
					<polygon style="fill:#F4F4F4;" points="236.678,411.029 524.761,411.029 524.761,412.029 236.871,412.029 199.369,427.031 
						168.658,426.457 168.677,425.457 199.185,426.027 					"/>
				</g>
				<g>
					<path style="fill:#F4F4F4;" d="M196.667,346.789h83.585l29.998,40c11.598-0.037,209.204-0.654,213.166,0.008l-0.164,0.986
						c-3.916-0.654-211.156,0-213.248,0.006l-0.252,0.002l-0.15-0.201l-29.85-39.801h-83.085V346.789z"/>
				</g>
				<g>
					<polygon style="fill:#F4F4F4;" points="211.345,356.789 270.951,358.129 294.281,396.123 511.334,396.123 511.334,397.123 
						293.723,397.123 270.385,359.117 211.322,357.789 					"/>
				</g>
				<g>
					<rect x="214.001" y="386.123" style="fill:#F4F4F4;" width="60.001" height="1"/>
				</g>
				<g>
					<path style="fill:#F4F4F4;" d="M235.844,398.816l0.316,0.947c-1.98,0.66-30.016,1.853-33.977,2.02l-21.208,16.568l-0.615-0.789
						l21.46-16.766l0.161-0.006C214.815,400.256,234.426,399.289,235.844,398.816z"/>
				</g>
				<g>
					<path style="fill:#F4F4F4;" d="M162.673,132.457l172.849,2.002l38.666,33.333c48.99,0.228,141.946,0.525,144.345,0.018
						l0.292,0.956c-2.021,0.672-130.215,0.093-144.826,0.025l-0.185-0.001l-0.14-0.12l-38.529-33.215l-172.484-1.998
						L162.673,132.457z"/>
				</g>
				<g>
					<path style="fill:#F4F4F4;" d="M200.001,179.791h35.553l28.667,31.331c4.188-0.011,65.998-0.168,127.057-0.248
						c36.954-0.049,66.406-0.059,87.536-0.033c40.199,0.052,40.211,0.098,40.344,0.661l0.092,0.386l-0.359,0.183l-0.221-0.442
						l-0.123,0.469c-3.636-0.621-252.034,0.02-254.544,0.026l-0.221,0.001l-28.669-31.333h-35.112V179.791z"/>
				</g>
				<g>
					<polygon style="fill:#F4F4F4;" points="221.155,221.791 513.334,221.791 513.334,222.791 221.513,222.791 199.512,240.791 
						179.333,240.791 179.333,239.791 199.155,239.791 					"/>
				</g>
				<g>
					<path style="fill:#F4F4F4;" d="M296.004,190.457c52.602,0.228,152.735,0.527,155.199,0.019l0.29,0.956
						c-2.022,0.672-139.791,0.093-155.493,0.025L296.004,190.457z"/>
				</g>
				<g>
					<rect x="218.667" y="156.457" style="fill:#F4F4F4;" width="88.667" height="1"/>
				</g>
				<g>
					<circle style="fill:#F4F4F4;" cx="308.836" cy="157.123" r="3.5"/>
				</g>
				<g>
					<circle style="fill:#F4F4F4;" cx="296.002" cy="190.957" r="2.625"/>
				</g>
				<g>
					<path style="fill:#F4F4F4;" d="M448.712,190.957c0-1.449,1.174-2.625,2.623-2.625c1.451,0,2.625,1.176,2.625,2.625
						c0,1.449-1.174,2.625-2.625,2.625C449.886,193.582,448.712,192.406,448.712,190.957z"/>
				</g>
				<g>
					<path style="fill:#F4F4F4;" d="M370.044,166.957c0-1.451,1.176-2.625,2.625-2.625c1.449,0,2.625,1.174,2.625,2.625
						c0,1.449-1.176,2.623-2.625,2.623C371.22,169.58,370.044,168.406,370.044,166.957z"/>
				</g>
				<g>
					<path style="fill:#F4F4F4;" d="M332.712,135.58c0-1.449,1.174-2.625,2.623-2.625c1.451,0,2.625,1.176,2.625,2.625
						c0,1.449-1.174,2.625-2.625,2.625C333.886,138.205,332.712,137.029,332.712,135.58z"/>
				</g>
				<g>
					<circle style="fill:#F4F4F4;" cx="199.335" cy="180.914" r="2.625"/>
				</g>
				<g>
					<path style="fill:#F4F4F4;" d="M261.377,211.625c0-1.451,1.174-2.625,2.623-2.625c1.451,0,2.625,1.174,2.625,2.625
						c0,1.449-1.174,2.623-2.625,2.623C262.551,214.248,261.377,213.074,261.377,211.625z"/>
				</g>
				<g>
					<path style="fill:#F4F4F4;" d="M174.087,240.916c0-1.451,1.174-2.625,2.623-2.625c1.451,0,2.625,1.174,2.625,2.625
						c0,1.449-1.174,2.623-2.625,2.623C175.261,243.539,174.087,242.365,174.087,240.916z"/>
				</g>
				<path style="fill:#F4F4F4;" d="M194.71,347.248c0-1.451,1.176-2.625,2.625-2.625c1.449,0,2.625,1.174,2.625,2.625
					c0,1.449-1.176,2.623-2.625,2.623C195.886,349.871,194.71,348.697,194.71,347.248z"/>
				<path style="fill:#F4F4F4;" d="M208.71,357.289c0-1.449,1.174-2.625,2.623-2.625c1.451,0,2.625,1.176,2.625,2.625
					c0,1.449-1.174,2.625-2.625,2.625C209.884,359.914,208.71,358.738,208.71,357.289z"/>
				<circle style="fill:#F4F4F4;" cx="272.002" cy="387.957" r="2.625"/>
				<path style="fill:#F4F4F4;" d="M208.71,386.582c0-1.451,1.176-2.625,2.625-2.625c1.449,0,2.625,1.174,2.625,2.625
					c0,1.449-1.176,2.623-2.625,2.623C209.886,389.205,208.71,388.031,208.71,386.582z"/>
				<path style="fill:#F4F4F4;" d="M233.377,399.291c0-1.451,1.176-2.625,2.625-2.625c1.449,0,2.625,1.174,2.625,2.625
					c0,1.449-1.176,2.623-2.625,2.623C234.553,401.914,233.377,400.74,233.377,399.291z"/>
				<path style="fill:#F4F4F4;" d="M180.044,416.623c0-1.449,1.174-2.625,2.623-2.625c1.451,0,2.625,1.176,2.625,2.625
					c0,1.449-1.174,2.625-2.625,2.625C181.218,419.248,180.044,418.072,180.044,416.623z"/>
				<g>
					<polygon style="fill:#F4F4F4;" points="429.346,305.789 488.951,307.129 512.281,345.123 729.334,345.123 729.334,346.123 
						511.723,346.123 488.385,308.117 429.322,306.789 					"/>
				</g>
				<g>
					<rect x="432.002" y="335.123" style="fill:#F4F4F4;" width="60" height="1"/>
				</g>
				<g>
					<path style="fill:#F4F4F4;" d="M453.844,347.816l0.316,0.947c-1.98,0.66-30.016,1.853-33.977,2.02l-21.209,16.568l-0.615-0.789
						l21.461-16.766l0.16-0.006C432.814,349.256,452.426,348.289,453.844,347.816z"/>
				</g>
				<path style="fill:#F4F4F4;" d="M426.711,306.289c0-1.449,1.174-2.625,2.623-2.625c1.451,0,2.625,1.176,2.625,2.625
					c0,1.449-1.174,2.625-2.625,2.625C427.885,308.914,426.711,307.738,426.711,306.289z"/>
				<path style="fill:#F4F4F4;" d="M426.711,335.582c0-1.451,1.176-2.625,2.625-2.625c1.449,0,2.625,1.174,2.625,2.625
					c0,1.449-1.176,2.623-2.625,2.623C427.887,338.205,426.711,337.031,426.711,335.582z"/>
				<path style="fill:#F4F4F4;" d="M398.045,365.623c0-1.449,1.174-2.625,2.623-2.625c1.451,0,2.625,1.176,2.625,2.625
					c0,1.449-1.174,2.625-2.625,2.625C399.219,368.248,398.045,367.072,398.045,365.623z"/>
				<path style="fill:#F4F4F4;" d="M165.335,332.957c0-1.451,1.174-2.625,2.623-2.625c1.451,0,2.625,1.174,2.625,2.625
					c0,1.449-1.174,2.623-2.625,2.623C166.509,335.58,165.335,334.406,165.335,332.957z"/>
				<g>
					<path style="fill:#F4F4F4;" d="M215.835,157.123c0-1.934,1.567-3.5,3.5-3.5c1.932,0,3.501,1.566,3.501,3.5
						c0,1.932-1.568,3.5-3.501,3.5C217.402,160.623,215.835,159.055,215.835,157.123z"/>
				</g>
			</g>
		</g>
	</g>
	<g>
		<g style="opacity:0.3;">
			<g>
				<rect x="247.575" y="126.726" style="fill:#F15A24;" width="8.607" height="72.234"/>
				<rect x="235.279" y="143.633" style="fill:#F15A24;" width="8.606" height="55.327"/>
				<rect x="222.984" y="126.726" style="fill:#F15A24;" width="8.607" height="72.234"/>
				<rect x="210.688" y="158.08" style="fill:#F15A24;" width="8.607" height="40.88"/>
			</g>
			<rect x="207" y="198.039" style="fill:#F15A24;" width="52.87" height="1.844"/>
		</g>
		<g>
			<g>
				<rect x="244.575" y="124.726" style="fill:#797BD1;" width="8.607" height="72.234"/>
				<rect x="232.279" y="141.633" style="fill:#74D6CF;" width="8.606" height="55.327"/>
				<rect x="219.984" y="124.726" style="fill:#797BD1;" width="8.607" height="72.234"/>
				<rect x="207.688" y="156.08" style="fill:#74D6CF;" width="8.607" height="40.88"/>
			</g>
			<rect x="204" y="196.039" style="fill:#4D4D4D;" width="52.87" height="1.844"/>
		</g>
		<path style="opacity:0.2;fill:#F15A24;" d="M113.286,201.058c0-0.385-0.014-0.768-0.035-1.147l12.954-4.21l-3.056-9.406
			l-12.871,4.183c-0.465-0.752-0.979-1.472-1.536-2.153l8.005-11.021l-8-5.813l-7.955,10.947c-0.812-0.333-1.649-0.616-2.511-0.842
			v-13.617h-9.89v13.533c-0.865,0.211-1.707,0.477-2.525,0.796l-8.005-11.019l-8.001,5.813l7.957,10.952
			c-0.57,0.672-1.095,1.383-1.574,2.126l-12.956-4.21l-3.056,9.406l12.876,4.184c-0.037,0.495-0.062,0.994-0.062,1.498
			c0,0.385,0.013,0.768,0.035,1.147l-12.955,4.209l3.057,9.405l12.872-4.181c0.465,0.752,0.978,1.472,1.537,2.154l-8.006,11.019
			l8.001,5.814l7.954-10.948c0.813,0.333,1.65,0.616,2.511,0.842l0.001,13.617h9.89v-13.534c0.864-0.21,1.707-0.477,2.524-0.795
			l8.006,11.018l8.002-5.813l-7.958-10.953c0.569-0.672,1.095-1.382,1.574-2.125l12.955,4.209l3.057-9.405l-12.877-4.185
			C113.262,202.06,113.286,201.562,113.286,201.058z"/>
		<path style="fill:#74D6CF;" d="M111.286,199.058c0-0.385-0.014-0.768-0.035-1.147l12.954-4.21l-3.056-9.406l-12.871,4.183
			c-0.465-0.752-0.979-1.472-1.536-2.153l8.005-11.021l-8-5.813l-7.955,10.947c-0.813-0.333-1.649-0.616-2.511-0.842v-13.617h-9.89
			v13.533c-0.865,0.211-1.707,0.477-2.525,0.796l-8.005-11.019l-8.001,5.813l7.957,10.952c-0.57,0.672-1.095,1.383-1.574,2.126
			l-12.956-4.21l-3.056,9.406l12.876,4.184c-0.037,0.495-0.062,0.994-0.062,1.498c0,0.385,0.013,0.768,0.035,1.147l-12.955,4.209
			l3.057,9.405l12.872-4.181c0.465,0.752,0.978,1.472,1.537,2.154l-8.006,11.019l8.001,5.814l7.954-10.948
			c0.813,0.333,1.65,0.616,2.511,0.842l0.001,13.617h9.89v-13.534c0.864-0.21,1.707-0.477,2.524-0.795l8.006,11.018l8.002-5.813
			l-7.958-10.953c0.569-0.672,1.095-1.382,1.574-2.125l12.955,4.209l3.057-9.405l-12.877-4.185
			C111.262,200.06,111.286,199.562,111.286,199.058z"/>
		<path style="opacity:0.3;fill:#F15A24;" d="M367.566,195.677c0-0.446-0.016-0.888-0.041-1.329l8.853-2.877
			c-0.505-3.903-1.701-7.589-3.469-10.929l-8.83,2.869c-0.54-0.872-1.136-1.706-1.781-2.497l5.47-7.529
			c-2.637-2.781-5.755-5.095-9.23-6.806l-5.457,7.511c-0.94-0.387-1.913-0.715-2.911-0.977v-9.305
			c-1.923-0.355-3.904-0.551-5.93-0.551c-1.888,0-3.736,0.172-5.535,0.48v9.281c-1.004,0.243-1.98,0.553-2.927,0.922l-5.477-7.539
			c-3.496,1.668-6.642,3.946-9.311,6.692l5.454,7.508c-0.66,0.78-1.269,1.603-1.823,2.464l-8.867-2.881
			c-1.808,3.32-3.049,6.993-3.602,10.886l8.832,2.869c-0.043,0.575-0.071,1.151-0.071,1.736c0,0.447,0.016,0.891,0.041,1.33
			l-8.854,2.877c0.506,3.903,1.702,7.589,3.47,10.929l8.83-2.87c0.54,0.872,1.136,1.707,1.782,2.499l-5.469,7.527
			c2.635,2.78,5.753,5.095,9.228,6.807l5.456-7.511c0.942,0.386,1.912,0.714,2.912,0.977v9.304c1.923,0.357,3.903,0.552,5.931,0.552
			c1.888,0,3.735-0.171,5.535-0.479v-9.28c1.003-0.245,1.98-0.553,2.926-0.923l5.477,7.538c3.497-1.668,6.643-3.945,9.311-6.693
			l-5.455-7.509c0.66-0.779,1.27-1.602,1.824-2.463l8.866,2.881c1.81-3.319,3.05-6.993,3.603-10.886l-8.832-2.87
			C367.535,196.84,367.566,196.262,367.566,195.677z M344.239,201.015c-2.948,0-5.337-2.39-5.337-5.338
			c0-2.947,2.389-5.337,5.337-5.337c2.946,0,5.337,2.39,5.337,5.337C349.576,198.624,347.185,201.015,344.239,201.015z"/>
		<path style="opacity:0.2;fill:#F15A24;" d="M120.794,226.673c-4.011,0-6.634,1.233-6.634,4.474
			c0,13.577,56.003,5.091,56.003,44.277c0,24.069-21.137,34.714-45.512,34.714c-18.822,0-39.805-6.325-54.152-17.279l13.268-26.845
			c11.108,9.257,30.238,16.816,41.192,16.816c5.246,0,8.64-1.697,8.64-5.555c0-14.039-56.004-4.781-56.004-42.735
			c0-21.599,18.205-35.176,46.284-35.176c17.125,0,34.868,5.092,47.055,12.806l-12.959,27.153
			C147.022,233.306,130.206,226.673,120.794,226.673z M296.435,200.907v27.154H240.74v13.268h50.605v27.154H240.74v13.422h57.083
			v27.153h-92.876v-108.15H296.435z M441.02,254.905c0,32.091-24.993,55.695-59.398,55.695c-34.403,0-59.397-23.451-59.397-55.695
			c0-32.09,24.994-55.077,59.397-55.077C416.026,199.828,441.02,222.97,441.02,254.905z M358.943,255.06
			c0,14.811,10.799,25.765,23.142,25.765c12.342,0,22.216-10.953,22.216-25.765c0-14.81-9.874-25.455-22.216-25.455
			C369.588,229.605,358.943,240.249,358.943,255.06z"/>
		<path style="fill:#F15A24;" d="M117.794,224.673c-4.011,0-6.634,1.233-6.634,4.474c0,13.577,56.003,5.091,56.003,44.277
			c0,24.069-21.137,34.714-45.512,34.714c-18.822,0-39.805-6.325-54.152-17.279l13.268-26.845
			c11.108,9.257,30.238,16.816,41.192,16.816c5.246,0,8.64-1.697,8.64-5.555c0-14.039-56.004-4.781-56.004-42.735
			c0-21.599,18.205-35.176,46.284-35.176c17.125,0,34.868,5.092,47.055,12.806l-12.959,27.153
			C144.022,231.306,127.206,224.673,117.794,224.673z M293.435,198.907v27.154H237.74v13.268h50.605v27.154H237.74v13.422h57.083
			v27.153h-92.876v-108.15H293.435z M438.02,252.905c0,32.091-24.993,55.695-59.398,55.695c-34.403,0-59.397-23.451-59.397-55.695
			c0-32.09,24.994-55.077,59.397-55.077C413.026,197.828,438.02,220.97,438.02,252.905z M355.943,253.06
			c0,14.811,10.799,25.765,23.142,25.765c12.342,0,22.216-10.953,22.216-25.765c0-14.81-9.874-25.455-22.216-25.455
			C366.588,227.605,355.943,238.249,355.943,253.06z"/>
		<path style="fill:none;stroke:#4D4D4D;stroke-miterlimit:10;" d="M112.794,226.673c-4.011,0-6.634,1.233-6.634,4.474
			c0,13.577,56.003,5.091,56.003,44.277c0,24.069-21.137,34.714-45.512,34.714c-18.822,0-39.805-6.325-54.152-17.279l13.268-26.845
			c11.108,9.257,30.238,16.816,41.192,16.816c5.246,0,8.64-1.697,8.64-5.555c0-14.039-56.004-4.781-56.004-42.735
			c0-21.599,18.205-35.176,46.284-35.176c17.125,0,34.868,5.092,47.055,12.806l-12.959,27.153
			C139.022,233.306,122.206,226.673,112.794,226.673z M288.435,200.907v27.154H232.74v13.268h50.605v27.154H232.74v13.422h57.083
			v27.153h-92.876v-108.15H288.435z M433.02,254.905c0,32.091-24.993,55.695-59.398,55.695c-34.403,0-59.397-23.451-59.397-55.695
			c0-32.09,24.994-55.077,59.397-55.077C408.026,199.828,433.02,222.97,433.02,254.905z M350.943,255.06
			c0,14.811,10.799,25.765,23.142,25.765c12.342,0,22.216-10.953,22.216-25.765c0-14.81-9.874-25.455-22.216-25.455
			C361.588,229.605,350.943,240.249,350.943,255.06z"/>
		<path style="opacity:0.2;fill:#8F3515;" d="M439.461,179.729c-17.224,0-31.184,13.961-31.184,31.184
			c0,17.223,13.961,31.184,31.184,31.184c17.222,0,31.183-13.961,31.183-31.184C470.644,193.69,456.683,179.729,439.461,179.729z"/>
		<g>
			<path style="fill:#4D4D4D;" d="M467.644,208.913c0,17.223-13.961,31.184-31.183,31.184c-17.224,0-31.184-13.961-31.184-31.184
				c0-17.222,13.961-31.184,31.184-31.184C453.683,177.729,467.644,191.69,467.644,208.913z"/>
			<path style="fill:#F4F4F4;" d="M459.576,208.913c0,12.767-10.35,23.116-23.115,23.116c-12.767,0-23.117-10.349-23.117-23.116
				c0-12.766,10.35-23.116,23.117-23.116C449.227,185.797,459.576,196.146,459.576,208.913z"/>
			<g>
				<rect x="435" y="210" style="fill:#4D4D4D;" width="11" height="1"/>
				<rect x="435" y="194" style="fill:#4D4D4D;" width="2" height="17"/>
			</g>
			<g>
				<path style="fill:#4D4D4D;" d="M418.142,208.694c0,0.482-0.391,0.872-0.873,0.872c-0.482,0-0.872-0.39-0.872-0.872
					c0-0.481,0.391-0.872,0.872-0.872C417.751,207.822,418.142,208.213,418.142,208.694z"/>
				<path style="fill:#4D4D4D;" d="M456.739,208.694c0,0.482-0.39,0.872-0.872,0.872c-0.482,0-0.871-0.39-0.871-0.872
					c0-0.481,0.39-0.872,0.871-0.872C456.35,207.822,456.739,208.213,456.739,208.694z"/>
			</g>
			<g>
				<path style="fill:#4D4D4D;" d="M436.568,227.122c0.481,0,0.872,0.391,0.872,0.872c0,0.482-0.391,0.872-0.872,0.872
					c-0.482,0-0.872-0.391-0.872-0.872C435.696,227.513,436.087,227.122,436.568,227.122z"/>
				<path style="fill:#4D4D4D;" d="M436.568,188.524c0.481,0,0.872,0.391,0.872,0.872s-0.391,0.872-0.872,0.872
					c-0.482,0-0.872-0.391-0.872-0.872S436.087,188.524,436.568,188.524z"/>
			</g>
		</g>
		<g style="opacity:0.2;">
			<path style="fill:#8F3515;" d="M139.369,350.392c0,0.009,0.001,0.016,0.001,0.024
				C139.557,350.317,139.372,349.031,139.369,350.392z"/>
			<path style="fill:#8F3515;" d="M93.224,350.426c0-0.012,0.001-0.02,0.001-0.03c0-0.004-0.001-0.007-0.001-0.011V350.426z"/>
			<path style="fill:#8F3515;" d="M153.866,291.329H79.822c-1.886,0-3.902,1.355-3.902,3.183v44.579c0,1.827,2.016,3.21,3.902,3.21
				h30.434l-1.412,5.985c-0.173,0.732-0.219,1.492-0.163,2.14H94.126c-0.226,0-0.891-1.451-0.901-0.03
				c0.005,0.928,0.675,1.507,0.901,1.507h45.221c0.225,0,0.027-0.572,0.022-1.486c-0.001,0-0.001,0-0.001,0.001
				c-0.007,0.003-0.013,0.009-0.021,0.009h-12.935c0.067-0.709-0.002-1.592-0.235-2.42l-1.604-5.705h29.293
				c1.886,0,3.526-1.383,3.526-3.21v-44.579C157.393,292.685,155.752,291.329,153.866,291.329z"/>
			<path style="fill:#8F3515;" d="M139.368,350.385v0.032c0-0.01,0-0.017,0.001-0.025
				C139.369,350.389,139.368,350.388,139.368,350.385z"/>
		</g>
		<g>
			<g>
				<g>
					<path style="fill:#D4D4D4;" d="M129.512,349.165c0.249-0.739,0.232-2.008-0.101-3.159l-2.608-9.051
						c-0.329-1.139-1.351-1.96-2.312-1.945l-8.409,0.128c-0.958,0.017-1.944,0.86-2.221,2.009l-2.209,9.14
						c-0.251,1.035-0.253,2.14-0.045,2.879H129.512z"/>
					<path style="fill:#F4F4F4;" d="M142.926,348.385c0,0.935,0.211,1.518-0.021,1.518H96.573c-0.233,0-0.924-0.583-0.924-1.518
						v0.041c0-1.478,0.691,0,0.924,0h46.331c0.233,0,0.021-1.478,0.021,0V348.385z"/>
					<g>
						<path style="fill:#F4F4F4;" d="M161.393,337.091c0,1.827-1.681,3.21-3.613,3.21H81.918c-1.933,0-3.998-1.383-3.998-3.21
							v-44.579c0-1.827,2.065-3.183,3.998-3.183h75.862c1.932,0,3.613,1.355,3.613,3.183V337.091z"/>
						<path style="fill:#74D6CF;" d="M156.961,331.239c0,1.502-0.404,3.15-2.176,3.15h-69.7c-1.773,0-4.21-1.648-4.21-3.15v-36.612
							c0-1.501,2.438-2.343,4.21-2.343h69.7c1.772,0,2.176,0.842,2.176,2.343V331.239z"/>
						<path style="fill:#333333;" d="M121.786,337.235c0,1.154-0.885,2.09-1.979,2.09c-1.093,0-1.979-0.936-1.979-2.09
							c0-1.153,0.886-2.09,1.979-2.09C120.9,335.146,121.786,336.082,121.786,337.235z"/>
						<path style="fill:#333333;" d="M120.466,290.527c0,0.385-0.295,0.695-0.659,0.695c-0.363,0-0.659-0.311-0.659-0.695
							c0-0.383,0.296-0.695,0.659-0.695C120.171,289.832,120.466,290.145,120.466,290.527z"/>
					</g>
				</g>
			</g>
			<g>
				<g>
					<path style="fill:#F4F4F4;" d="M142.933,328.255c0,2.057-0.727,3.063-2.692,3.063H96.585c-1.966,0-4.006-1.007-4.006-3.063
						v-29.48c0-2.057,2.041-3.712,4.006-3.712h43.656c1.964,0,2.692,1.655,2.692,3.712V328.255z"/>
					<path style="fill:#B3B3B3;" d="M96.517,298.442c0,0.672-0.544,1.216-1.215,1.216s-1.214-0.544-1.214-1.216
						c0-0.669,0.544-1.213,1.214-1.213S96.517,297.773,96.517,298.442z"/>
					<path style="fill:#B3B3B3;" d="M100.96,298.442c0,0.672-0.544,1.216-1.215,1.216c-0.671,0-1.215-0.544-1.215-1.216
						c0-0.669,0.544-1.213,1.215-1.213C100.416,297.229,100.96,297.773,100.96,298.442z"/>
					<path style="fill:#B3B3B3;" d="M105.404,298.442c0,0.672-0.543,1.216-1.215,1.216c-0.672,0-1.215-0.544-1.215-1.216
						c0-0.669,0.544-1.213,1.215-1.213C104.86,297.229,105.404,297.773,105.404,298.442z"/>
				</g>
				<g>
					<rect x="95.6" y="304.126" style="fill:#797BD1;" width="45.318" height="25.178"/>
					<g>
						<polygon style="fill:#F4F4F4;" points="98.901,326.943 97.89,326.485 104.456,311.969 109.675,320.449 117.315,306.761 
							125.868,314.986 136.466,305.946 137.186,306.791 125.824,316.483 117.583,308.56 109.722,322.646 104.605,314.333 						"/>
					</g>
					<path style="fill:#F4F4F4;" d="M100.333,326.068c0,0.892-0.723,1.615-1.614,1.615c-0.893,0-1.615-0.724-1.615-1.615
						c0-0.893,0.723-1.614,1.615-1.614C99.61,324.454,100.333,325.176,100.333,326.068z"/>
					<path style="fill:#F4F4F4;" d="M106.443,312.181c0,0.893-0.723,1.616-1.614,1.616c-0.892,0-1.616-0.723-1.616-1.616
						c0-0.892,0.724-1.613,1.616-1.613C105.72,310.567,106.443,311.289,106.443,312.181z"/>
					<path style="fill:#F4F4F4;" d="M110.887,321.625c0,0.891-0.723,1.615-1.615,1.615c-0.892,0-1.616-0.725-1.616-1.615
						c0-0.892,0.724-1.614,1.616-1.614C110.165,320.011,110.887,320.733,110.887,321.625z"/>
					<path style="fill:#F4F4F4;" d="M119.219,307.183c0,0.893-0.722,1.613-1.614,1.613c-0.893,0-1.616-0.721-1.616-1.613
						c0-0.892,0.723-1.614,1.616-1.614C118.497,305.568,119.219,306.291,119.219,307.183z"/>
					<path style="fill:#F4F4F4;" d="M127.55,315.516c0,0.892-0.722,1.615-1.614,1.615c-0.892,0-1.615-0.724-1.615-1.615
						c0-0.893,0.724-1.616,1.615-1.616C126.828,313.899,127.55,314.623,127.55,315.516z"/>
					<path style="fill:#F4F4F4;" d="M138.661,306.627c0,0.893-0.723,1.615-1.615,1.615c-0.892,0-1.615-0.722-1.615-1.615
						c0-0.893,0.723-1.614,1.615-1.614C137.938,305.013,138.661,305.734,138.661,306.627z"/>
				</g>
			</g>
		</g>
		<g style="opacity:0.2;">
			<path style="fill:#8F3515;" d="M335.41,281.669c11.431,0,20.697-9.267,20.697-20.698c0-2.181-0.342-4.28-0.967-6.254l0.002-0.001
				c-0.178-0.562-0.383-1.111-0.606-1.65c-0.089-0.214-0.19-0.419-0.285-0.628c-0.159-0.351-0.322-0.697-0.499-1.037
				c-0.12-0.229-0.247-0.453-0.375-0.677c-0.179-0.313-0.366-0.62-0.561-0.923c-0.138-0.214-0.274-0.428-0.42-0.636
				c-0.227-0.326-0.467-0.64-0.712-0.952c-0.129-0.165-0.251-0.335-0.386-0.497c-0.374-0.449-0.768-0.881-1.179-1.297
				c-0.138-0.14-0.286-0.268-0.429-0.404c-0.298-0.285-0.6-0.564-0.914-0.831c-0.182-0.154-0.37-0.301-0.558-0.449
				c-0.297-0.235-0.6-0.462-0.91-0.681c-0.194-0.137-0.39-0.273-0.589-0.404c-0.344-0.225-0.697-0.436-1.055-0.64
				c-0.173-0.099-0.342-0.205-0.518-0.299c-0.532-0.284-1.076-0.549-1.635-0.788c-0.108-0.046-0.222-0.082-0.331-0.126
				c-0.465-0.189-0.935-0.363-1.415-0.518c-0.203-0.065-0.409-0.121-0.614-0.18c-0.403-0.116-0.81-0.222-1.223-0.314
				c-0.223-0.049-0.444-0.096-0.669-0.138c-0.43-0.081-0.865-0.145-1.304-0.199c-0.201-0.025-0.4-0.056-0.604-0.075
				c-0.641-0.06-1.287-0.098-1.943-0.098c-0.172,0-0.343,0.009-0.513,0.013v0.013c-11.192,0.275-20.186,9.413-20.186,20.67
				C314.712,272.402,323.978,281.669,335.41,281.669z"/>
			<rect x="313.176" y="286.178" style="fill:#8F3515;" width="46.107" height="2.253"/>
			<rect x="313.176" y="291.914" style="fill:#8F3515;" width="46.107" height="2.254"/>
			<rect x="313.176" y="297.652" style="fill:#8F3515;" width="46.107" height="2.254"/>
			<rect x="313.176" y="303.39" style="fill:#8F3515;" width="25.205" height="2.254"/>
		</g>
		<g>
			<g>
				<path style="fill:#74D6CF;" d="M351.107,260.971c0,11.432-9.267,20.698-20.697,20.698c-11.432,0-20.698-9.267-20.698-20.698
					c0-11.43,9.267-20.696,20.698-20.696C341.841,240.274,351.107,249.54,351.107,260.971z"/>
				<path style="fill:#F4F4F4;" d="M330.41,240.274c-0.172,0-0.343,0.009-0.513,0.013l0.409,20.479l19.836-6.051
					C347.489,246.344,339.659,240.274,330.41,240.274z"/>
			</g>
			<rect x="308.176" y="286.178" style="fill:#F4F4F4;" width="46.107" height="2.253"/>
			<rect x="308.176" y="291.914" style="fill:#F4F4F4;" width="46.107" height="2.254"/>
			<rect x="308.176" y="297.652" style="fill:#F4F4F4;" width="46.107" height="2.254"/>
			<rect x="308.176" y="303.39" style="fill:#F4F4F4;" width="25.205" height="2.254"/>
		</g>
		<path style="opacity:0.2;fill:#8F3515;" d="M221.339,300.928c0-0.331-0.011-0.66-0.029-0.985l11.133-3.618l-2.626-8.083
			l-11.062,3.594c-0.4-0.646-0.84-1.265-1.32-1.851l6.88-9.47l-6.875-4.997l-6.837,9.408c-0.697-0.287-1.417-0.53-2.157-0.724V272.5
			h-8.499v11.63c-0.743,0.181-1.467,0.411-2.169,0.685l-6.879-9.469l-6.877,4.995l6.838,9.411c-0.491,0.578-0.941,1.188-1.353,1.827
			l-11.135-3.617l-2.626,8.082l11.065,3.597c-0.031,0.426-0.053,0.854-0.053,1.287c0,0.331,0.012,0.66,0.03,0.985l-11.132,3.618
			l2.626,8.082l11.061-3.594c0.401,0.647,0.841,1.267,1.321,1.852l-6.88,9.47l6.875,4.996l6.836-9.408
			c0.697,0.287,1.417,0.53,2.158,0.724v11.702h8.499v-11.63c0.743-0.181,1.467-0.411,2.169-0.685l6.88,9.47l6.876-4.996
			l-6.838-9.413c0.489-0.577,0.94-1.186,1.353-1.824l11.134,3.616l2.627-8.082l-11.065-3.598
			C221.318,301.788,221.339,301.36,221.339,300.928z M204.048,312.065c-6.151,0-11.137-4.986-11.137-11.137
			c0-6.151,4.986-11.138,11.137-11.138c6.151,0,11.136,4.986,11.136,11.138C215.185,307.078,210.199,312.065,204.048,312.065z"/>
		<path style="fill:#4D4D4D;" d="M219.339,298.928c0-0.331-0.011-0.66-0.029-0.985l11.133-3.618l-2.626-8.083l-11.062,3.594
			c-0.4-0.646-0.84-1.265-1.32-1.851l6.88-9.47l-6.875-4.997l-6.837,9.408c-0.697-0.287-1.417-0.53-2.157-0.724V270.5h-8.499v11.63
			c-0.743,0.181-1.467,0.411-2.169,0.685l-6.879-9.469l-6.877,4.995l6.838,9.411c-0.491,0.578-0.941,1.188-1.353,1.827
			l-11.135-3.617l-2.626,8.082l11.065,3.597c-0.031,0.426-0.053,0.854-0.053,1.287c0,0.331,0.012,0.66,0.03,0.985l-11.132,3.618
			l2.626,8.082l11.061-3.594c0.401,0.647,0.841,1.267,1.321,1.852l-6.88,9.47l6.875,4.996l6.836-9.408
			c0.697,0.287,1.417,0.53,2.158,0.724v11.702h8.499v-11.63c0.743-0.181,1.467-0.411,2.169-0.685l6.88,9.47l6.876-4.996
			l-6.838-9.413c0.489-0.577,0.94-1.186,1.353-1.824l11.134,3.616l2.627-8.082l-11.065-3.598
			C219.318,299.788,219.339,299.36,219.339,298.928z M213.185,298.928c0,6.15-4.985,11.137-11.136,11.137
			c-6.151,0-11.137-4.986-11.137-11.137c0-6.151,4.986-11.138,11.137-11.138C208.199,287.79,213.185,292.776,213.185,298.928z"/>
		<g>
			<polygon style="opacity:0.2;fill:#F15A24;" points="294.809,313.829 310.02,313.52 317.891,326.539 310.553,339.866 
				295.343,340.173 287.471,327.154 			"/>
			<polygon style="opacity:0.2;fill:#F15A24;" points="296.364,343.603 311.575,343.294 319.447,356.313 312.108,369.638 
				296.9,369.946 289.028,356.93 			"/>
			<polygon style="opacity:0.2;fill:none;stroke:#F15A24;stroke-miterlimit:10;" points="269.926,330.044 285.137,329.735 
				293.01,342.754 285.673,356.081 270.463,356.387 262.591,343.371 			"/>
		</g>
	</g>
	<g>
		<polygon style="opacity:0.2;fill:#F15A24;" points="363,330 303,330 303,346 363,346 391,346 391,330 		"/>
		<g>
			<g>
				<rect x="300" y="328" style="fill:#F4F4F4;" width="88" height="16"/>
				<rect x="360" y="328" style="fill:#797BD1;" width="28" height="16"/>
			</g>
			<g>
				<path style="fill:#CFCFCF;" d="M308.648,336.322c-0.171,0-0.279,0.063-0.279,0.162c0,0.458,2.555,0.279,2.555,1.934
					c0,1.017-0.872,1.674-2.23,1.674c-0.908,0-1.718-0.234-2.402-0.702l0.612-1.259c0.656,0.404,1.269,0.611,1.816,0.611
					c0.189,0,0.307-0.055,0.307-0.145c0-0.432-2.501-0.242-2.501-1.907c0-1.034,0.854-1.7,2.168-1.7
					c0.782,0,1.547,0.208,2.285,0.621l-0.666,1.251C309.584,336.502,309.026,336.322,308.648,336.322z"/>
				<path style="fill:#CFCFCF;" d="M317.205,337.995h-3.202c0.135,0.387,0.423,0.585,0.819,0.585c0.341,0,0.691-0.152,0.998-0.441
					l1.053,1.034c-0.522,0.575-1.277,0.899-2.231,0.899c-1.683,0-2.681-0.989-2.681-2.51c0-1.556,1.044-2.555,2.627-2.555
					C316.306,335.009,317.314,336.178,317.205,337.995z M314.605,336.358c-0.351,0-0.566,0.288-0.647,0.701h1.224
					C315.209,336.654,314.957,336.358,314.605,336.358z"/>
				<path style="fill:#CFCFCF;" d="M323.182,336.816v3.185h-1.987v-0.53c-0.288,0.396-0.756,0.621-1.386,0.621
					c-1.043,0-1.647-0.612-1.647-1.548c0-0.972,0.657-1.484,1.907-1.503h1.125c-0.009-0.341-0.27-0.539-0.765-0.539
					c-0.369,0-0.936,0.108-1.494,0.314l-0.449-1.349c0.837-0.306,1.7-0.478,2.429-0.478
					C322.337,334.99,323.182,335.656,323.182,336.816z M321.194,338.428v-0.45h-0.702c-0.279,0-0.432,0.135-0.432,0.395
					c0,0.271,0.162,0.432,0.45,0.432C320.771,338.805,321.032,338.67,321.194,338.428z"/>
				<path style="fill:#CFCFCF;" d="M328.24,334.99v1.826c-0.908-0.135-1.502,0.189-1.502,0.838v2.347h-2.024v-4.92h2.024v0.72
					C327.08,335.288,327.602,334.99,328.24,334.99z"/>
				<path style="fill:#CFCFCF;" d="M331.832,336.647c-0.396,0-0.647,0.359-0.647,0.908c0,0.558,0.252,0.917,0.647,0.917
					c0.287,0,0.495-0.161,0.603-0.53l1.637,0.756c-0.359,0.872-1.223,1.376-2.348,1.376c-1.564,0-2.581-0.989-2.581-2.51
					c0-1.548,1.025-2.555,2.6-2.555c1.07,0,1.925,0.522,2.329,1.421l-1.609,0.685C332.336,336.816,332.119,336.647,331.832,336.647z
					"/>
				<path style="fill:#CFCFCF;" d="M340.551,336.862v3.139h-2.023v-2.555c0-0.413-0.234-0.675-0.585-0.675
					c-0.395,0-0.647,0.315-0.647,0.792v2.438h-2.023v-6.675h2.023v2.456c0.333-0.504,0.846-0.792,1.493-0.792
					C339.822,334.99,340.551,335.728,340.551,336.862z"/>
				<path style="fill:#CFCFCF;" d="M343.703,339.147c0,0.549-0.378,0.927-0.927,0.927c-0.54,0-0.918-0.378-0.918-0.927
					c0-0.54,0.378-0.917,0.918-0.917C343.325,338.229,343.703,338.606,343.703,339.147z"/>
				<path style="fill:#CFCFCF;" d="M346.763,339.147c0,0.549-0.378,0.927-0.927,0.927c-0.539,0-0.917-0.378-0.917-0.927
					c0-0.54,0.378-0.917,0.917-0.917C346.385,338.229,346.763,338.606,346.763,339.147z"/>
				<path style="fill:#CFCFCF;" d="M349.823,339.147c0,0.549-0.378,0.927-0.927,0.927c-0.54,0-0.918-0.378-0.918-0.927
					c0-0.54,0.378-0.917,0.918-0.917C349.445,338.229,349.823,338.606,349.823,339.147z"/>
			</g>
		</g>
	</g>
</g>
<g id="designed_by_freepik">
	<g>
		<path style="fill:#F15A24;" d="M180.391,488.517v-0.159c-0.217,0.248-0.432,0.448-0.645,0.604
			c-0.211,0.155-0.439,0.273-0.688,0.355c-0.246,0.079-0.516,0.12-0.809,0.12c-0.387,0-0.746-0.082-1.076-0.245
			c-0.33-0.163-0.615-0.396-0.857-0.698c-0.242-0.303-0.424-0.658-0.549-1.066c-0.123-0.409-0.186-0.851-0.186-1.326
			c0-1.005,0.246-1.792,0.74-2.353c0.494-0.561,1.145-0.841,1.951-0.841c0.467,0,0.859,0.08,1.18,0.237
			c0.32,0.159,0.633,0.403,0.938,0.733v-2.374c0-0.33,0.064-0.581,0.197-0.748c0.133-0.171,0.322-0.254,0.566-0.254
			c0.246,0,0.434,0.077,0.566,0.232c0.133,0.155,0.199,0.383,0.199,0.685v7.097c0,0.307-0.07,0.537-0.213,0.689
			c-0.143,0.153-0.326,0.231-0.553,0.231c-0.221,0-0.404-0.08-0.549-0.239C180.461,489.038,180.391,488.811,180.391,488.517z
			 M177.207,486.153c0,0.437,0.068,0.808,0.203,1.114c0.137,0.307,0.324,0.538,0.561,0.691c0.238,0.157,0.496,0.235,0.777,0.235
			c0.285,0,0.545-0.076,0.779-0.224c0.234-0.146,0.424-0.373,0.563-0.676c0.141-0.305,0.211-0.685,0.211-1.142
			c0-0.427-0.07-0.796-0.211-1.104c-0.139-0.309-0.328-0.546-0.568-0.709c-0.238-0.163-0.5-0.242-0.785-0.242
			c-0.297,0-0.563,0.083-0.795,0.25c-0.232,0.165-0.414,0.406-0.543,0.719C177.27,485.379,177.207,485.742,177.207,486.153z
			 M187.527,486.561h-3.166c0.004,0.364,0.078,0.686,0.223,0.965c0.145,0.279,0.336,0.489,0.576,0.631
			c0.238,0.144,0.502,0.212,0.791,0.212c0.193,0,0.371-0.021,0.529-0.066c0.162-0.047,0.316-0.116,0.467-0.212
			c0.15-0.097,0.289-0.2,0.414-0.31c0.127-0.11,0.291-0.26,0.492-0.448c0.084-0.07,0.203-0.106,0.357-0.106
			c0.164,0,0.299,0.046,0.402,0.136c0.102,0.091,0.154,0.219,0.154,0.384c0,0.146-0.057,0.315-0.172,0.509
			c-0.115,0.194-0.287,0.381-0.519,0.561c-0.232,0.179-0.521,0.326-0.871,0.444c-0.35,0.116-0.752,0.177-1.207,0.177
			c-1.039,0-1.848-0.295-2.424-0.886c-0.578-0.588-0.867-1.388-0.867-2.398c0-0.476,0.072-0.916,0.215-1.322
			c0.143-0.407,0.35-0.757,0.621-1.046c0.273-0.292,0.609-0.513,1.01-0.67c0.399-0.155,0.842-0.231,1.328-0.231
			c0.631,0,1.174,0.13,1.625,0.397c0.455,0.266,0.793,0.607,1.018,1.028c0.225,0.42,0.34,0.849,0.34,1.286
			c0,0.403-0.117,0.665-0.352,0.786C188.279,486.499,187.951,486.561,187.527,486.561z M184.361,485.647h2.936
			c-0.039-0.549-0.189-0.963-0.447-1.234c-0.26-0.273-0.6-0.41-1.023-0.41c-0.402,0-0.734,0.138-0.992,0.416
			C184.574,484.693,184.418,485.105,184.361,485.647z M194.902,487.332c0,0.444-0.107,0.825-0.326,1.142
			c-0.217,0.316-0.537,0.555-0.963,0.718c-0.424,0.163-0.941,0.245-1.551,0.245c-0.58,0-1.078-0.09-1.494-0.264
			c-0.414-0.179-0.721-0.4-0.918-0.664c-0.197-0.267-0.297-0.532-0.297-0.8c0-0.177,0.063-0.328,0.191-0.453
			c0.125-0.126,0.285-0.188,0.479-0.188c0.17,0,0.301,0.04,0.391,0.122c0.092,0.083,0.18,0.2,0.262,0.348
			c0.166,0.287,0.365,0.501,0.596,0.643c0.232,0.142,0.547,0.213,0.945,0.213c0.326,0,0.592-0.071,0.799-0.215
			c0.207-0.144,0.311-0.307,0.311-0.493c0-0.282-0.107-0.489-0.324-0.617c-0.215-0.131-0.57-0.255-1.063-0.373
			c-0.559-0.138-1.012-0.281-1.361-0.434c-0.35-0.149-0.629-0.349-0.84-0.598c-0.209-0.248-0.314-0.551-0.314-0.912
			c0-0.322,0.098-0.627,0.291-0.915c0.193-0.285,0.48-0.515,0.857-0.685c0.377-0.173,0.832-0.259,1.367-0.259
			c0.418,0,0.795,0.043,1.129,0.13c0.334,0.086,0.613,0.202,0.836,0.348s0.393,0.307,0.51,0.483c0.117,0.177,0.174,0.35,0.174,0.521
			c0,0.183-0.063,0.334-0.186,0.452c-0.125,0.119-0.301,0.177-0.531,0.177c-0.166,0-0.307-0.047-0.424-0.142s-0.25-0.235-0.4-0.423
			c-0.121-0.157-0.266-0.284-0.432-0.377c-0.166-0.095-0.391-0.144-0.676-0.144c-0.293,0-0.537,0.062-0.73,0.188
			c-0.193,0.122-0.289,0.275-0.289,0.46c0,0.171,0.07,0.309,0.213,0.417c0.143,0.107,0.334,0.196,0.576,0.268
			c0.24,0.069,0.57,0.155,0.996,0.258c0.5,0.122,0.91,0.268,1.229,0.437c0.318,0.169,0.559,0.369,0.725,0.599
			C194.822,486.774,194.902,487.037,194.902,487.332z M196.557,482.147c-0.225,0-0.418-0.068-0.578-0.208
			c-0.16-0.136-0.24-0.33-0.24-0.582c0-0.229,0.082-0.416,0.246-0.563c0.164-0.147,0.355-0.222,0.572-0.222
			c0.211,0,0.395,0.068,0.557,0.2c0.162,0.136,0.244,0.328,0.244,0.585c0,0.248-0.08,0.44-0.238,0.58
			C196.961,482.076,196.773,482.147,196.557,482.147z M197.357,483.809v4.649c0,0.322-0.078,0.566-0.23,0.732
			c-0.156,0.165-0.35,0.247-0.588,0.247c-0.238,0-0.43-0.086-0.578-0.253c-0.148-0.17-0.223-0.411-0.223-0.726v-4.604
			c0-0.318,0.074-0.557,0.223-0.718c0.148-0.161,0.34-0.243,0.578-0.243c0.238,0,0.432,0.082,0.588,0.243
			C197.279,483.298,197.357,483.521,197.357,483.809z M204.447,484.074v4.673c0,0.534-0.057,0.994-0.172,1.379
			c-0.113,0.384-0.299,0.702-0.551,0.955c-0.254,0.25-0.584,0.438-0.994,0.559c-0.408,0.123-0.918,0.183-1.525,0.183
			c-0.557,0-1.057-0.077-1.496-0.232c-0.438-0.155-0.775-0.355-1.012-0.601c-0.238-0.244-0.357-0.499-0.357-0.757
			c0-0.198,0.068-0.357,0.203-0.481c0.133-0.122,0.297-0.185,0.486-0.185c0.236,0,0.443,0.105,0.623,0.311
			c0.086,0.107,0.176,0.216,0.268,0.322c0.094,0.109,0.197,0.2,0.309,0.278c0.113,0.075,0.248,0.132,0.406,0.171
			c0.158,0.034,0.34,0.054,0.545,0.054c0.42,0,0.746-0.056,0.977-0.173c0.23-0.114,0.393-0.277,0.486-0.487
			c0.094-0.208,0.146-0.429,0.162-0.668c0.018-0.238,0.027-0.619,0.037-1.147c-0.25,0.348-0.537,0.612-0.863,0.793
			c-0.326,0.18-0.715,0.27-1.166,0.27c-0.541,0-1.014-0.138-1.42-0.412c-0.404-0.275-0.717-0.662-0.934-1.155
			c-0.217-0.496-0.326-1.067-0.326-1.716c0-0.483,0.066-0.918,0.199-1.307c0.133-0.391,0.322-0.719,0.566-0.986
			c0.244-0.268,0.527-0.468,0.848-0.603c0.32-0.134,0.672-0.202,1.055-0.202c0.459,0,0.855,0.087,1.193,0.26
			c0.334,0.177,0.646,0.451,0.936,0.823v-0.219c0-0.278,0.068-0.493,0.207-0.649c0.139-0.151,0.318-0.229,0.535-0.229
			c0.311,0,0.52,0.103,0.621,0.303C204.396,483.4,204.447,483.691,204.447,484.074z M199.758,486.112
			c0,0.652,0.143,1.146,0.43,1.479c0.287,0.334,0.658,0.501,1.113,0.501c0.268,0,0.521-0.071,0.76-0.216
			c0.24-0.144,0.434-0.358,0.586-0.649c0.148-0.289,0.225-0.639,0.225-1.052c0-0.654-0.145-1.167-0.436-1.532
			c-0.291-0.364-0.674-0.547-1.148-0.547c-0.463,0-0.832,0.175-1.111,0.523C199.896,484.971,199.758,485.468,199.758,486.112z
			 M207.02,483.785v0.193c0.285-0.372,0.596-0.646,0.936-0.822c0.338-0.175,0.725-0.263,1.164-0.263
			c0.428,0,0.809,0.094,1.145,0.277c0.336,0.185,0.588,0.447,0.752,0.785c0.107,0.195,0.178,0.409,0.209,0.635
			c0.031,0.229,0.047,0.519,0.047,0.873v2.994c0,0.322-0.074,0.566-0.223,0.732c-0.148,0.165-0.34,0.247-0.578,0.247
			c-0.24,0-0.435-0.086-0.586-0.253c-0.152-0.17-0.227-0.411-0.227-0.726v-2.682c0-0.531-0.074-0.938-0.223-1.217
			c-0.146-0.281-0.441-0.421-0.887-0.421c-0.287,0-0.551,0.085-0.787,0.256c-0.238,0.171-0.412,0.405-0.521,0.705
			c-0.08,0.238-0.119,0.686-0.119,1.343v2.016c0,0.326-0.076,0.57-0.229,0.733c-0.15,0.163-0.348,0.245-0.59,0.245
			c-0.232,0-0.424-0.086-0.574-0.253c-0.15-0.17-0.227-0.411-0.227-0.726v-4.649c0-0.308,0.068-0.536,0.201-0.688
			c0.135-0.151,0.318-0.228,0.551-0.228c0.143,0,0.273,0.033,0.387,0.101c0.115,0.068,0.207,0.168,0.275,0.3
			C206.986,483.43,207.02,483.593,207.02,483.785z M216.868,486.561h-3.166c0.006,0.364,0.078,0.686,0.223,0.965
			c0.145,0.279,0.336,0.489,0.576,0.631c0.238,0.144,0.502,0.212,0.791,0.212c0.193,0,0.371-0.021,0.531-0.066
			c0.158-0.047,0.314-0.116,0.465-0.212c0.15-0.097,0.287-0.2,0.416-0.31c0.125-0.11,0.289-0.26,0.49-0.448
			c0.084-0.07,0.203-0.106,0.355-0.106c0.166,0,0.301,0.046,0.404,0.136c0.104,0.091,0.154,0.219,0.154,0.384
			c0,0.146-0.059,0.315-0.172,0.509c-0.115,0.194-0.289,0.381-0.519,0.561c-0.231,0.179-0.522,0.326-0.871,0.444
			c-0.35,0.116-0.752,0.177-1.207,0.177c-1.039,0-1.848-0.295-2.426-0.886c-0.576-0.588-0.865-1.388-0.865-2.398
			c0-0.476,0.072-0.916,0.215-1.322c0.143-0.407,0.35-0.757,0.621-1.046c0.273-0.292,0.609-0.513,1.008-0.67
			c0.4-0.155,0.842-0.231,1.33-0.231c0.631,0,1.174,0.13,1.625,0.397c0.455,0.266,0.793,0.607,1.02,1.028
			c0.223,0.42,0.336,0.849,0.336,1.286c0,0.403-0.115,0.665-0.35,0.786C217.62,486.499,217.292,486.561,216.868,486.561z
			 M213.702,485.647h2.936c-0.039-0.549-0.189-0.963-0.447-1.234c-0.26-0.273-0.6-0.41-1.023-0.41c-0.404,0-0.734,0.138-0.994,0.416
			C213.915,484.693,213.759,485.105,213.702,485.647z M223.466,488.517v-0.159c-0.217,0.248-0.432,0.448-0.643,0.604
			c-0.211,0.155-0.439,0.273-0.688,0.355c-0.246,0.079-0.516,0.12-0.809,0.12c-0.389,0-0.746-0.082-1.076-0.245
			c-0.33-0.163-0.615-0.396-0.857-0.698c-0.24-0.303-0.424-0.658-0.549-1.066c-0.123-0.409-0.186-0.851-0.186-1.326
			c0-1.005,0.246-1.792,0.74-2.353c0.494-0.561,1.145-0.841,1.951-0.841c0.467,0,0.859,0.08,1.18,0.237
			c0.32,0.159,0.633,0.403,0.936,0.733v-2.374c0-0.33,0.068-0.581,0.199-0.748c0.133-0.171,0.322-0.254,0.566-0.254
			c0.246,0,0.434,0.077,0.566,0.232c0.133,0.155,0.199,0.383,0.199,0.685v7.097c0,0.307-0.07,0.537-0.213,0.689
			c-0.143,0.153-0.326,0.231-0.553,0.231c-0.221,0-0.404-0.08-0.549-0.239C223.538,489.038,223.466,488.811,223.466,488.517z
			 M220.282,486.153c0,0.437,0.068,0.808,0.205,1.114c0.137,0.307,0.324,0.538,0.561,0.691c0.238,0.157,0.496,0.235,0.775,0.235
			c0.287,0,0.547-0.076,0.781-0.224c0.234-0.146,0.424-0.373,0.563-0.676c0.141-0.305,0.211-0.685,0.211-1.142
			c0-0.427-0.07-0.796-0.211-1.104c-0.139-0.309-0.33-0.546-0.568-0.709c-0.24-0.163-0.502-0.242-0.785-0.242
			c-0.297,0-0.562,0.083-0.795,0.25c-0.233,0.165-0.414,0.406-0.543,0.719C220.347,485.379,220.282,485.742,220.282,486.153z
			 M230.083,481.42v2.458c0.305-0.313,0.613-0.556,0.93-0.722c0.316-0.165,0.709-0.249,1.176-0.249c0.537,0,1.008,0.126,1.414,0.379
			c0.404,0.254,0.719,0.621,0.941,1.103c0.225,0.479,0.336,1.052,0.336,1.712c0,0.487-0.063,0.935-0.188,1.342
			c-0.125,0.406-0.305,0.758-0.541,1.057c-0.238,0.301-0.525,0.529-0.863,0.692c-0.338,0.163-0.711,0.245-1.117,0.245
			c-0.25,0-0.484-0.029-0.703-0.09c-0.221-0.058-0.406-0.134-0.561-0.23c-0.154-0.097-0.285-0.196-0.395-0.299
			c-0.109-0.102-0.252-0.257-0.43-0.46v0.159c0,0.303-0.074,0.531-0.221,0.686c-0.145,0.155-0.33,0.233-0.557,0.233
			c-0.229,0-0.412-0.078-0.547-0.233c-0.137-0.155-0.205-0.384-0.205-0.686v-7.026c0-0.324,0.064-0.571,0.197-0.738
			c0.133-0.167,0.318-0.25,0.555-0.25c0.25,0,0.441,0.079,0.576,0.236C230.015,480.899,230.083,481.127,230.083,481.42z
			 M230.159,486.2c0,0.643,0.148,1.132,0.441,1.478c0.295,0.344,0.682,0.517,1.16,0.517c0.406,0,0.758-0.177,1.053-0.528
			c0.293-0.353,0.441-0.854,0.441-1.513c0-0.425-0.061-0.79-0.184-1.095c-0.123-0.307-0.297-0.546-0.521-0.711
			c-0.225-0.167-0.488-0.25-0.789-0.25c-0.309,0-0.584,0.083-0.824,0.25c-0.24,0.165-0.432,0.408-0.568,0.725
			C230.229,485.387,230.159,485.766,230.159,486.2z M236.977,489.637l0.149-0.359l-1.992-4.987
			c-0.123-0.286-0.184-0.493-0.184-0.624c0-0.138,0.035-0.266,0.105-0.382c0.072-0.117,0.17-0.214,0.295-0.284
			c0.125-0.071,0.254-0.106,0.389-0.106c0.232,0,0.408,0.074,0.527,0.222c0.119,0.147,0.223,0.359,0.314,0.633l1.369,3.961
			l1.299-3.684c0.102-0.297,0.195-0.532,0.279-0.701c0.082-0.168,0.17-0.283,0.262-0.341c0.094-0.06,0.225-0.09,0.396-0.09
			c0.123,0,0.24,0.033,0.352,0.098c0.113,0.065,0.199,0.153,0.262,0.264c0.061,0.108,0.092,0.226,0.092,0.346
			c-0.018,0.075-0.041,0.181-0.078,0.318c-0.035,0.138-0.078,0.277-0.129,0.419l-2.111,5.494c-0.182,0.483-0.359,0.86-0.535,1.137
			c-0.174,0.275-0.402,0.487-0.69,0.635c-0.287,0.148-0.674,0.219-1.16,0.219c-0.473,0-0.83-0.05-1.066-0.151
			c-0.238-0.104-0.355-0.291-0.355-0.56c0-0.185,0.057-0.326,0.17-0.428c0.111-0.099,0.279-0.151,0.5-0.151
			c0.088,0,0.172,0.014,0.256,0.037c0.102,0.023,0.191,0.035,0.266,0.035c0.186,0,0.332-0.027,0.439-0.084
			c0.105-0.054,0.201-0.149,0.287-0.285C236.77,490.101,236.866,489.9,236.977,489.637z M260.428,483.033
			c-0.543,0-0.814,0.19-0.814,0.579c0,0.173,0.066,0.314,0.197,0.421c0.131,0.108,0.315,0.161,0.557,0.161h0.447v4.264
			c0,0.316,0.074,0.56,0.227,0.726c0.154,0.167,0.344,0.251,0.572,0.251c0.242,0,0.438-0.084,0.59-0.251
			c0.154-0.166,0.23-0.409,0.23-0.726v-4.264h0.395c0.289,0,0.516-0.033,0.68-0.106c0.164-0.07,0.244-0.239,0.244-0.499
			c0-0.371-0.307-0.556-0.924-0.556h-0.395v-0.382c0-0.32,0.041-0.565,0.121-0.736c0.086-0.169,0.273-0.256,0.564-0.256
			c0.108,0,0.242,0.012,0.389,0.032c0.156,0.025,0.268,0.037,0.33,0.037c0.133,0,0.252-0.052,0.348-0.157
			c0.1-0.106,0.15-0.234,0.15-0.382c0-0.465-0.471-0.692-1.42-0.692c-0.531,0-0.951,0.067-1.258,0.202
			c-0.307,0.136-0.525,0.351-0.652,0.648c-0.131,0.297-0.191,0.696-0.191,1.201v0.483H260.428 M265.727,487.112
			c0-0.483,0.014-0.893,0.045-1.229c0.033-0.336,0.09-0.627,0.17-0.872c0.084-0.24,0.201-0.423,0.353-0.549
			c0.148-0.123,0.344-0.185,0.58-0.185c0.172,0,0.373,0.034,0.602,0.107c0.227,0.072,0.369,0.11,0.432,0.11
			c0.158,0,0.305-0.061,0.441-0.192c0.135-0.126,0.203-0.289,0.203-0.485c0-0.279-0.158-0.504-0.48-0.673
			c-0.32-0.169-0.648-0.255-0.99-0.255s-0.609,0.086-0.816,0.255c-0.203,0.169-0.4,0.417-0.594,0.749
			c-0.014-0.332-0.078-0.58-0.197-0.749c-0.119-0.169-0.313-0.255-0.582-0.255c-0.525,0-0.789,0.363-0.789,1.087v4.481
			c0,0.322,0.078,0.564,0.227,0.727c0.148,0.169,0.34,0.249,0.578,0.249c0.236,0,0.432-0.08,0.584-0.245
			c0.152-0.161,0.234-0.405,0.234-0.732V487.112 M273.168,486.56H270c0.006,0.364,0.078,0.688,0.223,0.967
			c0.146,0.277,0.336,0.487,0.576,0.631c0.24,0.142,0.502,0.21,0.793,0.21c0.193,0,0.369-0.02,0.531-0.068
			c0.158-0.043,0.315-0.114,0.463-0.212c0.152-0.093,0.289-0.196,0.416-0.311c0.127-0.108,0.291-0.258,0.492-0.444
			c0.084-0.07,0.203-0.108,0.355-0.108c0.168,0,0.301,0.046,0.404,0.138c0.103,0.091,0.152,0.217,0.152,0.382
			c0,0.147-0.055,0.314-0.166,0.509c-0.117,0.196-0.289,0.383-0.521,0.563c-0.234,0.177-0.525,0.326-0.873,0.442
			c-0.35,0.118-0.752,0.177-1.207,0.177c-1.041,0-1.85-0.293-2.426-0.882c-0.576-0.592-0.867-1.392-0.867-2.401
			c0-0.474,0.072-0.916,0.217-1.324c0.139-0.407,0.348-0.753,0.623-1.046c0.272-0.294,0.605-0.515,1.006-0.67
			c0.398-0.153,0.84-0.231,1.328-0.231c0.631,0,1.174,0.132,1.627,0.4c0.451,0.262,0.797,0.605,1.018,1.026
			c0.227,0.422,0.338,0.849,0.338,1.288c0,0.401-0.117,0.663-0.35,0.784C273.92,486.499,273.592,486.56,273.168,486.56 M270,485.645
			h2.935c-0.039-0.549-0.185-0.963-0.445-1.232c-0.262-0.275-0.598-0.41-1.023-0.41c-0.404,0-0.736,0.137-0.994,0.414
			C270.215,484.693,270.055,485.103,270,485.645 M279.902,486.56h-3.166c0.004,0.364,0.078,0.688,0.221,0.967
			c0.145,0.277,0.336,0.487,0.574,0.631c0.24,0.142,0.502,0.21,0.795,0.21c0.191,0,0.369-0.02,0.525-0.068
			c0.162-0.043,0.316-0.114,0.469-0.212c0.15-0.093,0.287-0.196,0.414-0.311c0.125-0.108,0.291-0.258,0.494-0.444
			c0.084-0.07,0.203-0.108,0.354-0.108c0.168,0,0.301,0.046,0.406,0.138c0.102,0.091,0.15,0.217,0.15,0.382
			c0,0.147-0.055,0.314-0.172,0.509c-0.109,0.196-0.283,0.383-0.518,0.563c-0.23,0.177-0.523,0.326-0.871,0.442
			c-0.348,0.118-0.754,0.177-1.207,0.177c-1.041,0-1.848-0.293-2.426-0.882c-0.578-0.592-0.867-1.392-0.867-2.401
			c0-0.474,0.072-0.916,0.217-1.324c0.141-0.407,0.348-0.753,0.621-1.046c0.272-0.294,0.607-0.515,1.008-0.67
			c0.398-0.153,0.844-0.231,1.328-0.231c0.631,0,1.174,0.132,1.631,0.4c0.451,0.262,0.791,0.605,1.014,1.026
			c0.223,0.422,0.34,0.849,0.34,1.288c0,0.401-0.119,0.663-0.35,0.784C280.652,486.499,280.324,486.56,279.902,486.56
			 M276.736,485.645h2.934c-0.039-0.549-0.189-0.963-0.445-1.232c-0.264-0.275-0.602-0.41-1.025-0.41
			c-0.404,0-0.734,0.137-0.996,0.414C276.947,484.693,276.789,485.103,276.736,485.645 M283.447,483.797v0.191
			c0.305-0.372,0.621-0.647,0.953-0.821c0.322-0.176,0.697-0.264,1.111-0.264c0.496,0,0.959,0.128,1.377,0.383
			c0.42,0.256,0.75,0.631,0.994,1.12c0.242,0.493,0.365,1.073,0.365,1.745c0,0.495-0.07,0.951-0.211,1.367
			c-0.139,0.413-0.334,0.761-0.58,1.042c-0.244,0.28-0.533,0.497-0.867,0.649c-0.338,0.149-0.693,0.226-1.078,0.226
			c-0.461,0-0.852-0.091-1.164-0.277c-0.314-0.181-0.613-0.455-0.9-0.81v2.415c0,0.704-0.26,1.061-0.775,1.061
			c-0.307,0-0.506-0.091-0.607-0.273c-0.094-0.185-0.146-0.448-0.146-0.8v-6.946c0-0.308,0.068-0.532,0.201-0.688
			c0.133-0.149,0.318-0.228,0.553-0.228c0.228,0,0.414,0.078,0.559,0.233C283.377,483.28,283.447,483.501,283.447,483.797
			 M286.621,486.134c0-0.425-0.066-0.79-0.195-1.093c-0.131-0.305-0.313-0.538-0.541-0.701c-0.229-0.163-0.488-0.246-0.77-0.246
			c-0.445,0-0.822,0.179-1.129,0.524c-0.307,0.351-0.463,0.865-0.463,1.547c0,0.637,0.154,1.138,0.461,1.493
			c0.303,0.355,0.678,0.532,1.131,0.532c0.268,0,0.518-0.078,0.748-0.229c0.23-0.157,0.414-0.391,0.551-0.699
			C286.551,486.949,286.621,486.574,286.621,486.134 M289.877,482.143c-0.227,0-0.418-0.072-0.576-0.208
			c-0.162-0.138-0.24-0.33-0.24-0.582c0-0.228,0.08-0.416,0.246-0.565c0.164-0.144,0.354-0.22,0.57-0.22
			c0.213,0,0.396,0.066,0.558,0.198c0.162,0.136,0.244,0.332,0.244,0.587c0,0.248-0.08,0.442-0.236,0.58
			C290.285,482.07,290.098,482.143,289.877,482.143 M290.68,483.805v4.655c0,0.32-0.078,0.563-0.23,0.725
			c-0.156,0.169-0.352,0.249-0.588,0.249c-0.238,0-0.428-0.084-0.58-0.251c-0.146-0.172-0.221-0.413-0.221-0.724v-4.609
			c0-0.316,0.074-0.555,0.221-0.716c0.152-0.165,0.342-0.245,0.58-0.245c0.236,0,0.432,0.08,0.588,0.245
			C290.602,483.296,290.68,483.519,290.68,483.805 M295.896,488.7c0.182,0.276,0.33,0.469,0.436,0.577
			c0.107,0.106,0.262,0.157,0.459,0.157c0.225,0,0.412-0.072,0.553-0.22c0.141-0.149,0.213-0.348,0.213-0.605
			c0-0.087-0.029-0.186-0.082-0.285c-0.053-0.102-0.145-0.243-0.264-0.439l-1.66-2.596l0.859-0.782
			c0.438-0.393,0.658-0.71,0.658-0.945c0-0.19-0.068-0.352-0.199-0.477c-0.139-0.128-0.307-0.194-0.51-0.194
			c-0.168,0-0.313,0.045-0.43,0.13c-0.121,0.086-0.291,0.251-0.516,0.483l-1.82,1.901v-3.906c0-0.326-0.076-0.579-0.221-0.746
			c-0.148-0.171-0.346-0.254-0.594-0.254c-0.254,0-0.455,0.091-0.594,0.279c-0.137,0.188-0.209,0.46-0.209,0.815v6.865
			c0,0.322,0.074,0.564,0.215,0.727c0.143,0.169,0.34,0.249,0.588,0.249c0.213,0,0.404-0.084,0.566-0.251
			c0.164-0.166,0.248-0.403,0.248-0.714v-1.281l0.879-0.823L295.896,488.7 M299.416,489.435c0.236,0,0.443-0.078,0.623-0.239
			c0.174-0.157,0.264-0.376,0.264-0.658c0-0.24-0.09-0.45-0.264-0.621c-0.18-0.169-0.391-0.254-0.639-0.254
			c-0.25,0-0.457,0.085-0.629,0.258c-0.17,0.173-0.256,0.379-0.256,0.617c0,0.286,0.09,0.507,0.268,0.662
			C298.961,489.356,299.17,489.435,299.416,489.435 M307.467,487.442c0-0.167-0.066-0.328-0.197-0.478
			c-0.129-0.147-0.293-0.223-0.49-0.223c-0.168,0-0.309,0.052-0.422,0.153c-0.113,0.102-0.221,0.242-0.318,0.423
			c-0.178,0.309-0.381,0.536-0.615,0.686c-0.23,0.149-0.51,0.223-0.834,0.223c-0.24,0-0.463-0.044-0.666-0.14
			c-0.201-0.093-0.371-0.227-0.516-0.405c-0.143-0.179-0.25-0.395-0.324-0.648c-0.074-0.253-0.113-0.534-0.113-0.837
			c0-0.641,0.146-1.151,0.438-1.522c0.295-0.371,0.682-0.557,1.158-0.557c0.332,0,0.605,0.073,0.82,0.225
			c0.219,0.147,0.422,0.373,0.621,0.67c0.109,0.155,0.209,0.266,0.299,0.336c0.09,0.068,0.201,0.104,0.338,0.104
			c0.201,0,0.377-0.067,0.523-0.201c0.145-0.135,0.215-0.3,0.215-0.489c0-0.19-0.064-0.395-0.193-0.614
			c-0.127-0.215-0.312-0.419-0.555-0.615c-0.244-0.19-0.539-0.348-0.891-0.47c-0.352-0.122-0.734-0.183-1.154-0.183
			c-0.674,0-1.26,0.136-1.746,0.416c-0.484,0.275-0.857,0.67-1.111,1.174c-0.258,0.507-0.387,1.092-0.387,1.754
			c0,0.973,0.281,1.751,0.84,2.331c0.563,0.579,1.344,0.87,2.346,0.87c0.469,0,0.893-0.064,1.27-0.19
			c0.375-0.124,0.686-0.293,0.932-0.499c0.248-0.206,0.434-0.421,0.553-0.65C307.406,487.858,307.467,487.643,307.467,487.442
			 M314.453,486.165c0,0.478-0.076,0.92-0.223,1.326c-0.152,0.405-0.369,0.753-0.654,1.042c-0.283,0.292-0.625,0.515-1.02,0.67
			c-0.398,0.153-0.842,0.233-1.334,0.233c-0.49,0-0.932-0.08-1.324-0.237c-0.391-0.155-0.73-0.382-1.016-0.672
			c-0.287-0.295-0.504-0.643-0.656-1.04c-0.143-0.4-0.219-0.841-0.219-1.322c0-0.487,0.076-0.936,0.223-1.34
			c0.152-0.405,0.369-0.751,0.648-1.038c0.283-0.288,0.621-0.507,1.02-0.664c0.402-0.155,0.842-0.233,1.324-0.233
			c0.488,0,0.934,0.078,1.334,0.239c0.398,0.155,0.738,0.38,1.027,0.668c0.285,0.295,0.5,0.639,0.648,1.038
			C314.379,485.239,314.453,485.68,314.453,486.165 M312.828,486.165c0-0.658-0.147-1.169-0.436-1.532
			c-0.289-0.37-0.682-0.551-1.17-0.551c-0.318,0-0.598,0.081-0.838,0.244c-0.242,0.161-0.426,0.402-0.557,0.723
			c-0.131,0.318-0.195,0.69-0.195,1.116c0,0.421,0.063,0.786,0.191,1.099c0.131,0.318,0.315,0.56,0.555,0.725
			c0.24,0.167,0.52,0.25,0.844,0.25c0.488,0,0.881-0.183,1.17-0.551C312.682,487.318,312.828,486.811,312.828,486.165
			 M320.629,486.283c0-0.689,0.061-1.17,0.176-1.442c0.109-0.208,0.258-0.38,0.449-0.505c0.193-0.124,0.396-0.19,0.609-0.19
			c0.264,0,0.463,0.072,0.596,0.214c0.127,0.14,0.209,0.316,0.238,0.524c0.027,0.21,0.043,0.483,0.043,0.831v2.706
			c0,0.334,0.078,0.589,0.234,0.759c0.156,0.171,0.357,0.257,0.604,0.257c0.252,0,0.457-0.086,0.609-0.253
			c0.154-0.172,0.23-0.423,0.23-0.763v-3.142c0-0.625-0.068-1.083-0.207-1.376c-0.158-0.318-0.396-0.567-0.715-0.741
			c-0.32-0.171-0.705-0.259-1.145-0.259c-0.381,0-0.727,0.08-1.039,0.239c-0.313,0.159-0.605,0.403-0.879,0.731
			c-0.191-0.322-0.432-0.566-0.725-0.729c-0.291-0.159-0.641-0.241-1.047-0.241c-0.395,0-0.748,0.078-1.07,0.239
			c-0.318,0.155-0.619,0.399-0.902,0.731v-0.151c0-0.26-0.072-0.464-0.221-0.611c-0.148-0.143-0.334-0.222-0.557-0.222
			c-0.227,0-0.412,0.078-0.555,0.239c-0.141,0.155-0.209,0.384-0.209,0.689v4.603c0,0.334,0.078,0.589,0.234,0.759
			c0.156,0.171,0.355,0.257,0.604,0.257c0.248,0,0.447-0.086,0.602-0.257c0.15-0.17,0.227-0.425,0.227-0.759v-2.172
			c0-0.68,0.086-1.198,0.254-1.556c0.168-0.367,0.516-0.548,1.045-0.548c0.264,0,0.459,0.072,0.582,0.22
			c0.121,0.14,0.197,0.328,0.227,0.548c0.025,0.223,0.039,0.539,0.039,0.945v2.563c0,0.34,0.078,0.591,0.232,0.763
			c0.148,0.167,0.348,0.253,0.594,0.253c0.254,0,0.455-0.086,0.611-0.253c0.154-0.172,0.23-0.423,0.23-0.763V486.283
			 M245.278,485.774c-0.002-0.004-0.002-0.006-0.002-0.006S245.276,485.771,245.278,485.774z M245.358,486.289
			c0.002,0,0.002,0,0.002,0c-0.031-0.147-0.055-0.293-0.072-0.435C245.306,485.998,245.329,486.146,245.358,486.289z
			 M245.895,487.782c-0.004-0.006-0.008-0.014-0.012-0.021C245.888,487.769,245.892,487.776,245.895,487.782z M245.843,487.684
			c-0.014-0.027-0.027-0.057-0.039-0.084C245.815,487.629,245.829,487.656,245.843,487.684z M245.509,486.864
			c0.08,0.248,0.176,0.489,0.287,0.72c-0.113-0.236-0.207-0.478-0.285-0.72H245.509z M251.543,479.608
			c0.314,0,0.545,0.025,0.809,0.07l0.076-0.474c0,0-0.732-0.224-1.692-0.146l-0.076-0.259c0.299-0.062,0.524-0.326,0.524-0.641
			c0-0.361-0.298-0.654-0.661-0.654c-0.365,0-0.66,0.293-0.66,0.654c0,0.314,0.225,0.579,0.521,0.641l0.084,0.287
			c-1.02,0.141-1.832,0.536-1.832,0.536l0.145,0.438c0.617-0.204,1.152-0.328,1.639-0.381
			C250.894,479.63,251.252,479.608,251.543,479.608z M245.882,482.005l0.004-0.006c0.025-0.031,0.047-0.06,0.072-0.09l-0.197-0.14
			l-0.303-0.222c-0.018,0.023-0.496,0.463-0.875,1.272c-0.016-0.025-0.035-0.051-0.057-0.074c-0.113-0.122-0.271-0.186-0.473-0.183
			c-0.002,0-0.006,0-0.01,0c-0.125,0-0.211-0.041-0.266-0.093c0.055-0.07,0.088-0.157,0.088-0.255c0-0.228-0.188-0.415-0.418-0.415
			c-0.23,0-0.416,0.186-0.416,0.415c0,0.23,0.186,0.414,0.416,0.414c0.037,0,0.07-0.006,0.105-0.012
			c0.102,0.112,0.266,0.212,0.504,0.208c0.123-0.002,0.213,0.028,0.271,0.095c0.07,0.075,0.094,0.185,0.102,0.266
			c-0.002,0-0.002,0.004-0.002,0.004c-0.271,0.738-0.195,1.656-0.195,1.656l0.66,0.025c0.014-0.334,0.063-0.918,0.232-1.385
			C245.454,482.589,245.866,482.025,245.882,482.005z M257.287,480.158c-0.23,0-0.418,0.185-0.418,0.413
			c0,0.037,0.006,0.072,0.016,0.104c-0.115,0.103-0.215,0.266-0.211,0.505c0.002,0.12-0.029,0.209-0.098,0.27
			c-0.053,0.047-0.119,0.07-0.184,0.087c-0.49-0.683-1.096-1.103-1.096-1.103l-0.475,0.505c0.359,0.324,0.725,0.73,1.08,1.237
			c0.246,0.347,0.498,0.8,0.709,1.248l0.639-0.301c0,0-0.291-0.717-0.703-1.361c0.072-0.023,0.143-0.063,0.207-0.118
			c0.125-0.112,0.186-0.272,0.182-0.47c0-0.131,0.043-0.218,0.094-0.274c0.072,0.053,0.16,0.088,0.258,0.088
			c0.231,0,0.418-0.186,0.418-0.416C257.705,480.343,257.518,480.158,257.287,480.158z M255.629,485.868
			c-0.881,0.425-2.328,0.988-4.234,1.252c-0.749,0.104-1.474,0.142-2.14,0.142c-0.869,0-1.637-0.063-2.225-0.138
			c-0.672-0.085-1.197-0.189-1.52-0.26c0.078,0.242,0.172,0.483,0.285,0.72c0,0.006,0.004,0.012,0.008,0.016
			c0.012,0.027,0.025,0.057,0.039,0.084c0.014,0.027,0.027,0.054,0.041,0.077c0.004,0.008,0.008,0.016,0.012,0.021
			c0.188,0.355,0.416,0.68,0.674,0.961c0.898,0.979,1.814,1.132,1.822,1.134l0.016,0.002l0.014,0.004
			c0.008,0.004,0.82,0.265,2.055,0.265c1.214,0,2.407-0.245,3.542-0.725c0.842-0.427,1.637-1.077,2.031-1.656
			c0.305-0.448,0.525-0.928,0.656-1.425c0.068-0.264,0.125-0.688,0.092-1.132C256.549,485.375,256.158,485.611,255.629,485.868z
			 M246.165,482.21c-0.025,0.037-0.408,0.575-0.709,1.398c-0.225,0.617-0.215,1.516-0.215,1.527l0,0c0,0.212,0.012,0.422,0.035,0.63
			c0,0,0,0.005,0.002,0.009c0.002,0.027,0.006,0.053,0.01,0.08c0.018,0.142,0.041,0.287,0.072,0.435
			c0.438,0.111,3.045,0.715,5.962,0.311c1.828-0.252,3.215-0.788,4.057-1.193c0.701-0.338,1.15-0.645,1.324-0.77
			c-0.174-0.639-0.65-1.639-1.088-2.262c-1.252-1.778-2.602-2.236-3.295-2.349c-0.264-0.043-0.477-0.068-0.777-0.068
			c-0.279,0-0.626,0.023-1.087,0.072c-0.465,0.048-0.983,0.169-1.582,0.368c-0.842,0.28-1.602,0.721-2.201,1.272l-0.02,0.018
			C246.563,481.77,246.378,481.94,246.165,482.21z M253.824,481.797c0.602,0,1.09,0.483,1.09,1.081c0,0.597-0.488,1.084-1.09,1.084
			c-0.6,0-1.086-0.487-1.086-1.084C252.738,482.28,253.225,481.797,253.824,481.797z M248.679,481.754
			c0.973,0,1.76,0.782,1.76,1.747c0,0.967-0.787,1.748-1.76,1.748c-0.969,0-1.756-0.781-1.756-1.748
			C246.923,482.536,247.71,481.754,248.679,481.754z"/>
	</g>
</g>
</svg>
